<svg width="400" height="594" viewBox="0 0 400 594" fill="none" xmlns="http://www.w3.org/2000/svg">
<rect width="400" height="594" rx="20" fill="white"/>
<mask id="mask0_13_123" style="mask-type:alpha" maskUnits="userSpaceOnUse" x="0" y="51" width="400" height="543">
<rect y="51" width="400" height="543" rx="20" fill="white"/>
</mask>
<g mask="url(#mask0_13_123)">
<circle cx="339.5" cy="430.5" r="246.5" fill="#D4E2EA"/>
</g>
<rect x="40" y="233" width="320" height="48" rx="8" fill="#F1F6FA"/>
<path d="M57.176 262V252.326H63.098V253.32H58.296V256.596H62.258V257.576H58.296V261.006H63.098V262H57.176ZM64.7463 262V255H65.8243V255.49C65.9829 255.397 66.1789 255.303 66.4123 255.21C66.6549 255.117 66.9116 255.037 67.1823 254.972C67.4529 254.897 67.7143 254.86 67.9663 254.86C68.6103 254.86 69.1003 254.977 69.4363 255.21C69.7816 255.434 70.0196 255.798 70.1503 256.302C70.2809 256.806 70.3463 257.469 70.3463 258.29V262H69.2543V258.332C69.2543 257.725 69.2169 257.24 69.1423 256.876C69.0769 256.512 68.9369 256.251 68.7223 256.092C68.5169 255.924 68.1996 255.84 67.7703 255.84C67.5369 255.84 67.2943 255.868 67.0423 255.924C66.7996 255.971 66.5709 256.036 66.3563 256.12C66.1416 256.195 65.9643 256.269 65.8243 256.344V262H64.7463ZM74.5755 262.154C74.0902 262.154 73.7028 262.079 73.4135 261.93C73.1335 261.781 72.9328 261.524 72.8115 261.16C72.6902 260.787 72.6295 260.264 72.6295 259.592V255.938H71.6355V255H72.6295V252.858H73.7075V255H75.9055V255.938H73.7075V259.27C73.7075 259.765 73.7262 260.152 73.7635 260.432C73.8102 260.703 73.9035 260.894 74.0435 261.006C74.1835 261.118 74.4028 261.174 74.7015 261.174C74.7948 261.174 74.9162 261.169 75.0655 261.16C75.2148 261.151 75.3642 261.141 75.5135 261.132C75.6722 261.113 75.8122 261.099 75.9335 261.09L76.0035 262C75.7982 262.028 75.5555 262.061 75.2755 262.098C74.9955 262.135 74.7622 262.154 74.5755 262.154ZM79.6657 262.14C78.9657 262.14 78.4104 262.005 77.9997 261.734C77.5984 261.463 77.309 261.062 77.1317 260.53C76.9544 259.998 76.8657 259.335 76.8657 258.542C76.8657 257.655 76.987 256.946 77.2297 256.414C77.4724 255.873 77.813 255.481 78.2517 255.238C78.6904 254.986 79.2084 254.86 79.8057 254.86C80.739 254.86 81.4437 255.121 81.9197 255.644C82.3957 256.157 82.6337 256.988 82.6337 258.136L82.5777 258.962H77.9717C77.981 259.69 78.1164 260.241 78.3777 260.614C78.639 260.987 79.1104 261.174 79.7917 261.174C80.053 261.174 80.3377 261.169 80.6457 261.16C80.963 261.141 81.2757 261.123 81.5837 261.104C81.8917 261.085 82.153 261.067 82.3677 261.048L82.3957 261.902C82.1717 261.939 81.8964 261.977 81.5697 262.014C81.2524 262.051 80.9257 262.079 80.5897 262.098C80.2537 262.126 79.9457 262.14 79.6657 262.14ZM77.9717 258.08H81.5417C81.5417 257.221 81.4017 256.624 81.1217 256.288C80.851 255.943 80.4124 255.77 79.8057 255.77C79.2177 255.77 78.765 255.947 78.4477 256.302C78.1304 256.657 77.9717 257.249 77.9717 258.08ZM84.256 262V255H85.334V255.938C85.5114 255.817 85.7354 255.686 86.006 255.546C86.2767 255.397 86.5754 255.257 86.902 255.126C87.2287 254.995 87.5554 254.902 87.882 254.846V255.952C87.5647 256.017 87.2427 256.106 86.916 256.218C86.5894 256.321 86.286 256.433 86.006 256.554C85.7354 256.675 85.5114 256.783 85.334 256.876V262H84.256ZM92.3537 262V252.326H94.4397L98.0797 261.006H98.3597V252.326H99.4797V262H97.4357L93.7397 253.32H93.4737V262H92.3537ZM103.788 262.14C103.191 262.14 102.734 262.019 102.416 261.776C102.099 261.533 101.88 261.155 101.758 260.642C101.646 260.129 101.59 259.466 101.59 258.654V255H102.668V258.654C102.668 259.27 102.696 259.76 102.752 260.124C102.818 260.488 102.953 260.754 103.158 260.922C103.364 261.081 103.672 261.16 104.082 261.16C104.493 261.16 104.866 261.104 105.202 260.992C105.538 260.88 105.809 260.768 106.014 260.656V255H107.092V262H106.014V261.51C105.716 261.678 105.389 261.827 105.034 261.958C104.689 262.079 104.274 262.14 103.788 262.14ZM109.112 262V255H110.19V255.49C110.414 255.359 110.717 255.224 111.1 255.084C111.482 254.935 111.851 254.86 112.206 254.86C112.672 254.86 113.046 254.916 113.326 255.028C113.615 255.14 113.848 255.322 114.026 255.574C114.212 255.471 114.441 255.364 114.712 255.252C114.982 255.14 115.272 255.047 115.58 254.972C115.897 254.897 116.205 254.86 116.504 254.86C117.138 254.86 117.624 254.972 117.96 255.196C118.305 255.411 118.543 255.77 118.674 256.274C118.804 256.778 118.87 257.45 118.87 258.29V262H117.792V258.332C117.792 257.725 117.754 257.24 117.68 256.876C117.614 256.512 117.479 256.251 117.274 256.092C117.068 255.924 116.756 255.84 116.336 255.84C115.962 255.84 115.594 255.896 115.23 256.008C114.875 256.12 114.6 256.232 114.404 256.344C114.469 256.587 114.511 256.89 114.53 257.254C114.558 257.609 114.572 257.977 114.572 258.36V262H113.494V258.388C113.494 257.753 113.461 257.254 113.396 256.89C113.33 256.517 113.19 256.251 112.976 256.092C112.77 255.924 112.458 255.84 112.038 255.84C111.683 255.84 111.333 255.896 110.988 256.008C110.642 256.12 110.376 256.232 110.19 256.344V262H109.112ZM123.167 262.14C122.961 262.14 122.714 262.131 122.425 262.112C122.145 262.103 121.86 262.084 121.571 262.056C121.281 262.028 121.025 262.005 120.801 261.986V251.962H121.893V255.336C122.117 255.233 122.42 255.131 122.803 255.028C123.185 254.916 123.554 254.86 123.909 254.86C124.543 254.86 125.047 254.981 125.421 255.224C125.803 255.457 126.074 255.835 126.233 256.358C126.401 256.871 126.485 257.548 126.485 258.388C126.485 259.321 126.382 260.063 126.177 260.614C125.981 261.155 125.64 261.547 125.155 261.79C124.679 262.023 124.016 262.14 123.167 262.14ZM123.153 261.16C123.787 261.16 124.259 261.067 124.567 260.88C124.884 260.684 125.094 260.381 125.197 259.97C125.309 259.559 125.365 259.032 125.365 258.388C125.365 257.791 125.318 257.305 125.225 256.932C125.131 256.559 124.968 256.283 124.735 256.106C124.511 255.929 124.198 255.84 123.797 255.84C123.451 255.84 123.101 255.887 122.747 255.98C122.392 256.064 122.107 256.148 121.893 256.232V261.09C122.089 261.109 122.313 261.127 122.565 261.146C122.826 261.155 123.022 261.16 123.153 261.16ZM130.675 262.14C129.975 262.14 129.42 262.005 129.009 261.734C128.608 261.463 128.319 261.062 128.141 260.53C127.964 259.998 127.875 259.335 127.875 258.542C127.875 257.655 127.997 256.946 128.239 256.414C128.482 255.873 128.823 255.481 129.261 255.238C129.7 254.986 130.218 254.86 130.815 254.86C131.749 254.86 132.453 255.121 132.929 255.644C133.405 256.157 133.643 256.988 133.643 258.136L133.587 258.962H128.981C128.991 259.69 129.126 260.241 129.387 260.614C129.649 260.987 130.12 261.174 130.801 261.174C131.063 261.174 131.347 261.169 131.655 261.16C131.973 261.141 132.285 261.123 132.593 261.104C132.901 261.085 133.163 261.067 133.377 261.048L133.405 261.902C133.181 261.939 132.906 261.977 132.579 262.014C132.262 262.051 131.935 262.079 131.599 262.098C131.263 262.126 130.955 262.14 130.675 262.14ZM128.981 258.08H132.551C132.551 257.221 132.411 256.624 132.131 256.288C131.861 255.943 131.422 255.77 130.815 255.77C130.227 255.77 129.775 255.947 129.457 256.302C129.14 256.657 128.981 257.249 128.981 258.08ZM135.266 262V255H136.344V255.938C136.521 255.817 136.745 255.686 137.016 255.546C137.286 255.397 137.585 255.257 137.912 255.126C138.238 254.995 138.565 254.902 138.892 254.846V255.952C138.574 256.017 138.252 256.106 137.926 256.218C137.599 256.321 137.296 256.433 137.016 256.554C136.745 256.675 136.521 256.783 136.344 256.876V262H135.266Z" fill="#6F96AA"/>
<path d="M41.176 224V214.326H43.206L45.88 222.446L48.568 214.326H50.598V224H49.478V215.516H49.268L46.51 223.65H45.264L42.506 215.516H42.296V224H41.176ZM55.4675 224.14C54.6835 224.14 54.0722 224.005 53.6335 223.734C53.2042 223.463 52.9008 223.053 52.7235 222.502C52.5555 221.951 52.4715 221.256 52.4715 220.416C52.4715 219.613 52.5648 218.951 52.7515 218.428C52.9475 217.905 53.2648 217.513 53.7035 217.252C54.1422 216.991 54.7302 216.86 55.4675 216.86C56.2142 216.86 56.8068 216.991 57.2455 217.252C57.6842 217.513 57.9968 217.905 58.1835 218.428C58.3795 218.951 58.4775 219.613 58.4775 220.416C58.4775 221.256 58.3888 221.951 58.2115 222.502C58.0435 223.053 57.7402 223.463 57.3015 223.734C56.8722 224.005 56.2608 224.14 55.4675 224.14ZM55.4675 223.202C56.0088 223.202 56.4148 223.109 56.6855 222.922C56.9562 222.726 57.1335 222.423 57.2175 222.012C57.3108 221.601 57.3575 221.069 57.3575 220.416C57.3575 219.772 57.3015 219.259 57.1895 218.876C57.0775 218.493 56.8862 218.218 56.6155 218.05C56.3448 217.882 55.9622 217.798 55.4675 217.798C54.9822 217.798 54.5995 217.882 54.3195 218.05C54.0488 218.218 53.8575 218.493 53.7455 218.876C53.6335 219.259 53.5775 219.772 53.5775 220.416C53.5775 221.069 53.6195 221.601 53.7035 222.012C53.7968 222.423 53.9788 222.726 54.2495 222.922C54.5202 223.109 54.9262 223.202 55.4675 223.202ZM62.5416 224.14C62.3363 224.14 62.089 224.131 61.7996 224.112C61.5196 224.103 61.235 224.084 60.9456 224.056C60.6563 224.028 60.3996 224.005 60.1756 223.986V213.962H61.2676V217.336C61.4916 217.233 61.795 217.131 62.1776 217.028C62.5603 216.916 62.929 216.86 63.2836 216.86C63.9183 216.86 64.4223 216.981 64.7956 217.224C65.1783 217.457 65.449 217.835 65.6076 218.358C65.7756 218.871 65.8596 219.548 65.8596 220.388C65.8596 221.321 65.757 222.063 65.5516 222.614C65.3556 223.155 65.015 223.547 64.5296 223.79C64.0536 224.023 63.391 224.14 62.5416 224.14ZM62.5276 223.16C63.1623 223.16 63.6336 223.067 63.9416 222.88C64.259 222.684 64.469 222.381 64.5716 221.97C64.6836 221.559 64.7396 221.032 64.7396 220.388C64.7396 219.791 64.693 219.305 64.5996 218.932C64.5063 218.559 64.343 218.283 64.1096 218.106C63.8856 217.929 63.573 217.84 63.1716 217.84C62.8263 217.84 62.4763 217.887 62.1216 217.98C61.767 218.064 61.4823 218.148 61.2676 218.232V223.09C61.4636 223.109 61.6876 223.127 61.9396 223.146C62.201 223.155 62.397 223.16 62.5276 223.16ZM67.5725 224V217H68.6505V224H67.5725ZM67.5725 215.46V214.2H68.6505V215.46H67.5725ZM70.7463 224V213.962H71.8243V224H70.7463ZM76.4079 224.14C75.7079 224.14 75.1525 224.005 74.7419 223.734C74.3405 223.463 74.0512 223.062 73.8739 222.53C73.6965 221.998 73.6079 221.335 73.6079 220.542C73.6079 219.655 73.7292 218.946 73.9719 218.414C74.2145 217.873 74.5552 217.481 74.9939 217.238C75.4325 216.986 75.9505 216.86 76.5479 216.86C77.4812 216.86 78.1859 217.121 78.6619 217.644C79.1379 218.157 79.3759 218.988 79.3759 220.136L79.3199 220.962H74.7139C74.7232 221.69 74.8585 222.241 75.1199 222.614C75.3812 222.987 75.8525 223.174 76.5339 223.174C76.7952 223.174 77.0799 223.169 77.3879 223.16C77.7052 223.141 78.0179 223.123 78.3259 223.104C78.6339 223.085 78.8952 223.067 79.1099 223.048L79.1379 223.902C78.9139 223.939 78.6385 223.977 78.3119 224.014C77.9945 224.051 77.6679 224.079 77.3319 224.098C76.9959 224.126 76.6879 224.14 76.4079 224.14ZM74.7139 220.08H78.2839C78.2839 219.221 78.1439 218.624 77.8639 218.288C77.5932 217.943 77.1545 217.77 76.5479 217.77C75.9599 217.77 75.5072 217.947 75.1899 218.302C74.8725 218.657 74.7139 219.249 74.7139 220.08ZM84.2424 224V214.326H86.3284L89.9684 223.006H90.2484V214.326H91.3684V224H89.3244L85.6284 215.32H85.3624V224H84.2424ZM95.677 224.14C95.0797 224.14 94.6223 224.019 94.305 223.776C93.9877 223.533 93.7683 223.155 93.647 222.642C93.535 222.129 93.479 221.466 93.479 220.654V217H94.557V220.654C94.557 221.27 94.585 221.76 94.641 222.124C94.7063 222.488 94.8417 222.754 95.047 222.922C95.2523 223.081 95.5603 223.16 95.971 223.16C96.3817 223.16 96.755 223.104 97.091 222.992C97.427 222.88 97.6977 222.768 97.903 222.656V217H98.981V224H97.903V223.51C97.6043 223.678 97.2777 223.827 96.923 223.958C96.5777 224.079 96.1623 224.14 95.677 224.14ZM101 224V217H102.078V217.49C102.302 217.359 102.606 217.224 102.988 217.084C103.371 216.935 103.74 216.86 104.094 216.86C104.561 216.86 104.934 216.916 105.214 217.028C105.504 217.14 105.737 217.322 105.914 217.574C106.101 217.471 106.33 217.364 106.6 217.252C106.871 217.14 107.16 217.047 107.468 216.972C107.786 216.897 108.094 216.86 108.392 216.86C109.027 216.86 109.512 216.972 109.848 217.196C110.194 217.411 110.432 217.77 110.562 218.274C110.693 218.778 110.758 219.45 110.758 220.29V224H109.68V220.332C109.68 219.725 109.643 219.24 109.568 218.876C109.503 218.512 109.368 218.251 109.162 218.092C108.957 217.924 108.644 217.84 108.224 217.84C107.851 217.84 107.482 217.896 107.118 218.008C106.764 218.12 106.488 218.232 106.292 218.344C106.358 218.587 106.4 218.89 106.418 219.254C106.446 219.609 106.46 219.977 106.46 220.36V224H105.382V220.388C105.382 219.753 105.35 219.254 105.284 218.89C105.219 218.517 105.079 218.251 104.864 218.092C104.659 217.924 104.346 217.84 103.926 217.84C103.572 217.84 103.222 217.896 102.876 218.008C102.531 218.12 102.265 218.232 102.078 218.344V224H101ZM115.055 224.14C114.85 224.14 114.603 224.131 114.313 224.112C114.033 224.103 113.749 224.084 113.459 224.056C113.17 224.028 112.913 224.005 112.689 223.986V213.962H113.781V217.336C114.005 217.233 114.309 217.131 114.691 217.028C115.074 216.916 115.443 216.86 115.797 216.86C116.432 216.86 116.936 216.981 117.309 217.224C117.692 217.457 117.963 217.835 118.121 218.358C118.289 218.871 118.373 219.548 118.373 220.388C118.373 221.321 118.271 222.063 118.065 222.614C117.869 223.155 117.529 223.547 117.043 223.79C116.567 224.023 115.905 224.14 115.055 224.14ZM115.041 223.16C115.676 223.16 116.147 223.067 116.455 222.88C116.773 222.684 116.983 222.381 117.085 221.97C117.197 221.559 117.253 221.032 117.253 220.388C117.253 219.791 117.207 219.305 117.113 218.932C117.02 218.559 116.857 218.283 116.623 218.106C116.399 217.929 116.087 217.84 115.685 217.84C115.34 217.84 114.99 217.887 114.635 217.98C114.281 218.064 113.996 218.148 113.781 218.232V223.09C113.977 223.109 114.201 223.127 114.453 223.146C114.715 223.155 114.911 223.16 115.041 223.16ZM122.564 224.14C121.864 224.14 121.309 224.005 120.898 223.734C120.497 223.463 120.207 223.062 120.03 222.53C119.853 221.998 119.764 221.335 119.764 220.542C119.764 219.655 119.885 218.946 120.128 218.414C120.371 217.873 120.711 217.481 121.15 217.238C121.589 216.986 122.107 216.86 122.704 216.86C123.637 216.86 124.342 217.121 124.818 217.644C125.294 218.157 125.532 218.988 125.532 220.136L125.476 220.962H120.87C120.879 221.69 121.015 222.241 121.276 222.614C121.537 222.987 122.009 223.174 122.69 223.174C122.951 223.174 123.236 223.169 123.544 223.16C123.861 223.141 124.174 223.123 124.482 223.104C124.79 223.085 125.051 223.067 125.266 223.048L125.294 223.902C125.07 223.939 124.795 223.977 124.468 224.014C124.151 224.051 123.824 224.079 123.488 224.098C123.152 224.126 122.844 224.14 122.564 224.14ZM120.87 220.08H124.44C124.44 219.221 124.3 218.624 124.02 218.288C123.749 217.943 123.311 217.77 122.704 217.77C122.116 217.77 121.663 217.947 121.346 218.302C121.029 218.657 120.87 219.249 120.87 220.08ZM127.154 224V217H128.232V217.938C128.41 217.817 128.634 217.686 128.904 217.546C129.175 217.397 129.474 217.257 129.8 217.126C130.127 216.995 130.454 216.902 130.78 216.846V217.952C130.463 218.017 130.141 218.106 129.814 218.218C129.488 218.321 129.184 218.433 128.904 218.554C128.634 218.675 128.41 218.783 128.232 218.876V224H127.154Z" fill="#487790"/>
<rect x="40" y="337" width="320" height="48" rx="8" fill="#F1F6FA"/>
<path d="M57.176 366V356.326H63.098V357.32H58.296V360.596H62.258V361.576H58.296V365.006H63.098V366H57.176ZM64.7463 366V359H65.8243V359.49C65.9829 359.397 66.1789 359.303 66.4123 359.21C66.6549 359.117 66.9116 359.037 67.1823 358.972C67.4529 358.897 67.7143 358.86 67.9663 358.86C68.6103 358.86 69.1003 358.977 69.4363 359.21C69.7816 359.434 70.0196 359.798 70.1503 360.302C70.2809 360.806 70.3463 361.469 70.3463 362.29V366H69.2543V362.332C69.2543 361.725 69.2169 361.24 69.1423 360.876C69.0769 360.512 68.9369 360.251 68.7223 360.092C68.5169 359.924 68.1996 359.84 67.7703 359.84C67.5369 359.84 67.2943 359.868 67.0423 359.924C66.7996 359.971 66.5709 360.036 66.3563 360.12C66.1416 360.195 65.9643 360.269 65.8243 360.344V366H64.7463ZM74.5755 366.154C74.0902 366.154 73.7028 366.079 73.4135 365.93C73.1335 365.781 72.9328 365.524 72.8115 365.16C72.6902 364.787 72.6295 364.264 72.6295 363.592V359.938H71.6355V359H72.6295V356.858H73.7075V359H75.9055V359.938H73.7075V363.27C73.7075 363.765 73.7262 364.152 73.7635 364.432C73.8102 364.703 73.9035 364.894 74.0435 365.006C74.1835 365.118 74.4028 365.174 74.7015 365.174C74.7948 365.174 74.9162 365.169 75.0655 365.16C75.2148 365.151 75.3642 365.141 75.5135 365.132C75.6722 365.113 75.8122 365.099 75.9335 365.09L76.0035 366C75.7982 366.028 75.5555 366.061 75.2755 366.098C74.9955 366.135 74.7622 366.154 74.5755 366.154ZM79.6657 366.14C78.9657 366.14 78.4104 366.005 77.9997 365.734C77.5984 365.463 77.309 365.062 77.1317 364.53C76.9544 363.998 76.8657 363.335 76.8657 362.542C76.8657 361.655 76.987 360.946 77.2297 360.414C77.4724 359.873 77.813 359.481 78.2517 359.238C78.6904 358.986 79.2084 358.86 79.8057 358.86C80.739 358.86 81.4437 359.121 81.9197 359.644C82.3957 360.157 82.6337 360.988 82.6337 362.136L82.5777 362.962H77.9717C77.981 363.69 78.1164 364.241 78.3777 364.614C78.639 364.987 79.1104 365.174 79.7917 365.174C80.053 365.174 80.3377 365.169 80.6457 365.16C80.963 365.141 81.2757 365.123 81.5837 365.104C81.8917 365.085 82.153 365.067 82.3677 365.048L82.3957 365.902C82.1717 365.939 81.8964 365.977 81.5697 366.014C81.2524 366.051 80.9257 366.079 80.5897 366.098C80.2537 366.126 79.9457 366.14 79.6657 366.14ZM77.9717 362.08H81.5417C81.5417 361.221 81.4017 360.624 81.1217 360.288C80.851 359.943 80.4124 359.77 79.8057 359.77C79.2177 359.77 78.765 359.947 78.4477 360.302C78.1304 360.657 77.9717 361.249 77.9717 362.08ZM84.256 366V359H85.334V359.938C85.5114 359.817 85.7354 359.686 86.006 359.546C86.2767 359.397 86.5754 359.257 86.902 359.126C87.2287 358.995 87.5554 358.902 87.882 358.846V359.952C87.5647 360.017 87.2427 360.106 86.916 360.218C86.5894 360.321 86.286 360.433 86.006 360.554C85.7354 360.675 85.5114 360.783 85.334 360.876V366H84.256ZM92.3537 366V356.326H95.8957C96.6051 356.326 97.1884 356.443 97.6457 356.676C98.1031 356.9 98.4437 357.245 98.6677 357.712C98.8917 358.169 99.0037 358.753 99.0037 359.462C99.0037 360.162 98.8917 360.759 98.6677 361.254C98.4437 361.739 98.1031 362.113 97.6457 362.374C97.1884 362.626 96.6051 362.752 95.8957 362.752H93.4737V366H92.3537ZM93.4737 361.772H95.8957C96.5864 361.772 97.0857 361.571 97.3937 361.17C97.7017 360.769 97.8557 360.199 97.8557 359.462C97.8557 358.715 97.7017 358.169 97.3937 357.824C97.0857 357.479 96.5864 357.306 95.8957 357.306H93.4737V361.772ZM101.997 366.14C101.353 366.14 100.863 365.958 100.527 365.594C100.191 365.23 100.023 364.698 100.023 363.998C100.023 363.541 100.102 363.167 100.261 362.878C100.42 362.589 100.658 362.369 100.975 362.22C101.302 362.061 101.703 361.963 102.179 361.926L104.335 361.716V361.114C104.335 360.638 104.228 360.302 104.013 360.106C103.808 359.91 103.5 359.812 103.089 359.812C102.856 359.812 102.576 359.821 102.249 359.84C101.932 359.859 101.614 359.882 101.297 359.91C100.98 359.938 100.7 359.966 100.457 359.994L100.401 359.168C100.625 359.121 100.896 359.075 101.213 359.028C101.53 358.981 101.862 358.944 102.207 358.916C102.552 358.879 102.87 358.86 103.159 358.86C103.691 358.86 104.125 358.944 104.461 359.112C104.797 359.271 105.04 359.518 105.189 359.854C105.348 360.181 105.427 360.601 105.427 361.114V364.656C105.446 364.861 105.525 365.011 105.665 365.104C105.814 365.197 106.001 365.258 106.225 365.286L106.183 366.14C105.978 366.14 105.791 366.126 105.623 366.098C105.455 366.079 105.296 366.047 105.147 366C105.026 365.953 104.909 365.897 104.797 365.832C104.694 365.767 104.592 365.687 104.489 365.594C104.312 365.669 104.083 365.748 103.803 365.832C103.532 365.916 103.238 365.986 102.921 366.042C102.613 366.107 102.305 366.14 101.997 366.14ZM102.179 365.23C102.431 365.23 102.692 365.207 102.963 365.16C103.234 365.113 103.49 365.057 103.733 364.992C103.976 364.927 104.176 364.866 104.335 364.81V362.528L102.305 362.724C101.885 362.761 101.582 362.883 101.395 363.088C101.218 363.293 101.129 363.587 101.129 363.97C101.129 364.362 101.218 364.67 101.395 364.894C101.572 365.118 101.834 365.23 102.179 365.23ZM109.682 366.14C109.468 366.14 109.206 366.126 108.898 366.098C108.6 366.07 108.301 366.037 108.002 366C107.704 365.953 107.438 365.911 107.204 365.874L107.26 364.936C107.494 364.964 107.755 364.997 108.044 365.034C108.343 365.071 108.632 365.104 108.912 365.132C109.192 365.151 109.416 365.16 109.584 365.16C109.967 365.16 110.284 365.127 110.536 365.062C110.788 364.987 110.98 364.866 111.11 364.698C111.241 364.53 111.306 364.292 111.306 363.984C111.306 363.751 111.255 363.569 111.152 363.438C111.059 363.307 110.877 363.2 110.606 363.116C110.345 363.032 109.962 362.953 109.458 362.878C108.936 362.794 108.497 362.691 108.142 362.57C107.797 362.439 107.54 362.248 107.372 361.996C107.204 361.744 107.12 361.385 107.12 360.918C107.12 360.395 107.242 359.985 107.484 359.686C107.727 359.387 108.04 359.177 108.422 359.056C108.814 358.925 109.22 358.86 109.64 358.86C109.902 358.86 110.186 358.874 110.494 358.902C110.812 358.93 111.12 358.967 111.418 359.014C111.717 359.051 111.974 359.089 112.188 359.126L112.16 360.064C111.936 360.027 111.675 359.994 111.376 359.966C111.078 359.929 110.779 359.901 110.48 359.882C110.182 359.854 109.92 359.84 109.696 359.84C109.416 359.84 109.164 359.873 108.94 359.938C108.716 359.994 108.539 360.097 108.408 360.246C108.278 360.395 108.212 360.605 108.212 360.876C108.212 361.081 108.259 361.249 108.352 361.38C108.446 361.501 108.623 361.604 108.884 361.688C109.146 361.772 109.524 361.856 110.018 361.94C110.597 362.033 111.059 362.15 111.404 362.29C111.759 362.43 112.016 362.626 112.174 362.878C112.333 363.13 112.412 363.485 112.412 363.942C112.412 364.763 112.17 365.337 111.684 365.664C111.199 365.981 110.532 366.14 109.682 366.14ZM116.204 366.14C115.989 366.14 115.728 366.126 115.42 366.098C115.121 366.07 114.822 366.037 114.524 366C114.225 365.953 113.959 365.911 113.726 365.874L113.782 364.936C114.015 364.964 114.276 364.997 114.566 365.034C114.864 365.071 115.154 365.104 115.434 365.132C115.714 365.151 115.938 365.16 116.106 365.16C116.488 365.16 116.806 365.127 117.058 365.062C117.31 364.987 117.501 364.866 117.632 364.698C117.762 364.53 117.828 364.292 117.828 363.984C117.828 363.751 117.776 363.569 117.674 363.438C117.58 363.307 117.398 363.2 117.128 363.116C116.866 363.032 116.484 362.953 115.98 362.878C115.457 362.794 115.018 362.691 114.664 362.57C114.318 362.439 114.062 362.248 113.894 361.996C113.726 361.744 113.642 361.385 113.642 360.918C113.642 360.395 113.763 359.985 114.006 359.686C114.248 359.387 114.561 359.177 114.944 359.056C115.336 358.925 115.742 358.86 116.162 358.86C116.423 358.86 116.708 358.874 117.016 358.902C117.333 358.93 117.641 358.967 117.94 359.014C118.238 359.051 118.495 359.089 118.71 359.126L118.682 360.064C118.458 360.027 118.196 359.994 117.898 359.966C117.599 359.929 117.3 359.901 117.002 359.882C116.703 359.854 116.442 359.84 116.218 359.84C115.938 359.84 115.686 359.873 115.462 359.938C115.238 359.994 115.06 360.097 114.93 360.246C114.799 360.395 114.734 360.605 114.734 360.876C114.734 361.081 114.78 361.249 114.874 361.38C114.967 361.501 115.144 361.604 115.406 361.688C115.667 361.772 116.045 361.856 116.54 361.94C117.118 362.033 117.58 362.15 117.926 362.29C118.28 362.43 118.537 362.626 118.696 362.878C118.854 363.13 118.934 363.485 118.934 363.942C118.934 364.763 118.691 365.337 118.206 365.664C117.72 365.981 117.053 366.14 116.204 366.14ZM121.619 366L119.967 359H121.059L122.431 365.062H122.669L124.307 359.14H125.441L127.079 365.062H127.317L128.689 359H129.781L128.129 366H126.323L124.867 360.582L123.425 366H121.619ZM133.907 366.14C133.123 366.14 132.512 366.005 132.073 365.734C131.644 365.463 131.34 365.053 131.163 364.502C130.995 363.951 130.911 363.256 130.911 362.416C130.911 361.613 131.004 360.951 131.191 360.428C131.387 359.905 131.704 359.513 132.143 359.252C132.582 358.991 133.17 358.86 133.907 358.86C134.654 358.86 135.246 358.991 135.685 359.252C136.124 359.513 136.436 359.905 136.623 360.428C136.819 360.951 136.917 361.613 136.917 362.416C136.917 363.256 136.828 363.951 136.651 364.502C136.483 365.053 136.18 365.463 135.741 365.734C135.312 366.005 134.7 366.14 133.907 366.14ZM133.907 365.202C134.448 365.202 134.854 365.109 135.125 364.922C135.396 364.726 135.573 364.423 135.657 364.012C135.75 363.601 135.797 363.069 135.797 362.416C135.797 361.772 135.741 361.259 135.629 360.876C135.517 360.493 135.326 360.218 135.055 360.05C134.784 359.882 134.402 359.798 133.907 359.798C133.422 359.798 133.039 359.882 132.759 360.05C132.488 360.218 132.297 360.493 132.185 360.876C132.073 361.259 132.017 361.772 132.017 362.416C132.017 363.069 132.059 363.601 132.143 364.012C132.236 364.423 132.418 364.726 132.689 364.922C132.96 365.109 133.366 365.202 133.907 365.202ZM138.629 366V359H139.707V359.938C139.884 359.817 140.108 359.686 140.379 359.546C140.65 359.397 140.948 359.257 141.275 359.126C141.602 358.995 141.928 358.902 142.255 358.846V359.952C141.938 360.017 141.616 360.106 141.289 360.218C140.962 360.321 140.659 360.433 140.379 360.554C140.108 360.675 139.884 360.783 139.707 360.876V366H138.629ZM145.695 366.14C145.415 366.14 145.149 366.107 144.897 366.042C144.645 365.986 144.411 365.883 144.197 365.734C143.991 365.585 143.809 365.379 143.651 365.118C143.492 364.847 143.371 364.502 143.287 364.082C143.203 363.662 143.161 363.153 143.161 362.556C143.161 361.725 143.259 361.039 143.455 360.498C143.651 359.947 143.963 359.537 144.393 359.266C144.822 358.995 145.391 358.86 146.101 358.86C146.371 358.86 146.675 358.883 147.011 358.93C147.347 358.967 147.608 359.005 147.795 359.042V355.962H148.887V366H147.809V365.538C147.659 365.622 147.463 365.711 147.221 365.804C146.987 365.897 146.735 365.977 146.465 366.042C146.203 366.107 145.947 366.14 145.695 366.14ZM145.835 365.16C146.077 365.16 146.32 365.132 146.563 365.076C146.815 365.02 147.048 364.955 147.263 364.88C147.477 364.796 147.655 364.721 147.795 364.656V359.966C147.683 359.947 147.529 359.929 147.333 359.91C147.137 359.882 146.931 359.859 146.717 359.84C146.511 359.821 146.325 359.812 146.157 359.812C145.681 359.812 145.307 359.915 145.037 360.12C144.766 360.325 144.57 360.633 144.449 361.044C144.337 361.445 144.281 361.949 144.281 362.556C144.281 363.116 144.323 363.569 144.407 363.914C144.491 364.25 144.603 364.511 144.743 364.698C144.892 364.875 145.06 364.997 145.247 365.062C145.433 365.127 145.629 365.16 145.835 365.16Z" fill="#6F96AA"/>
<path d="M41.176 328V318.326H44.718C45.4273 318.326 46.0107 318.443 46.468 318.676C46.9253 318.9 47.266 319.245 47.49 319.712C47.714 320.169 47.826 320.753 47.826 321.462C47.826 322.162 47.714 322.759 47.49 323.254C47.266 323.739 46.9253 324.113 46.468 324.374C46.0107 324.626 45.4273 324.752 44.718 324.752H42.296V328H41.176ZM42.296 323.772H44.718C45.4087 323.772 45.908 323.571 46.216 323.17C46.524 322.769 46.678 322.199 46.678 321.462C46.678 320.715 46.524 320.169 46.216 319.824C45.908 319.479 45.4087 319.306 44.718 319.306H42.296V323.772ZM50.8192 328.14C50.1752 328.14 49.6852 327.958 49.3492 327.594C49.0132 327.23 48.8452 326.698 48.8452 325.998C48.8452 325.541 48.9245 325.167 49.0832 324.878C49.2418 324.589 49.4798 324.369 49.7972 324.22C50.1238 324.061 50.5252 323.963 51.0012 323.926L53.1572 323.716V323.114C53.1572 322.638 53.0498 322.302 52.8352 322.106C52.6298 321.91 52.3218 321.812 51.9112 321.812C51.6778 321.812 51.3978 321.821 51.0712 321.84C50.7538 321.859 50.4365 321.882 50.1192 321.91C49.8018 321.938 49.5218 321.966 49.2792 321.994L49.2232 321.168C49.4472 321.121 49.7178 321.075 50.0352 321.028C50.3525 320.981 50.6838 320.944 51.0292 320.916C51.3745 320.879 51.6918 320.86 51.9812 320.86C52.5132 320.86 52.9472 320.944 53.2832 321.112C53.6192 321.271 53.8618 321.518 54.0112 321.854C54.1698 322.181 54.2492 322.601 54.2492 323.114V326.656C54.2678 326.861 54.3472 327.011 54.4872 327.104C54.6365 327.197 54.8232 327.258 55.0472 327.286L55.0052 328.14C54.7998 328.14 54.6132 328.126 54.4452 328.098C54.2772 328.079 54.1185 328.047 53.9692 328C53.8478 327.953 53.7312 327.897 53.6192 327.832C53.5165 327.767 53.4138 327.687 53.3112 327.594C53.1338 327.669 52.9052 327.748 52.6252 327.832C52.3545 327.916 52.0605 327.986 51.7432 328.042C51.4352 328.107 51.1272 328.14 50.8192 328.14ZM51.0012 327.23C51.2532 327.23 51.5145 327.207 51.7852 327.16C52.0558 327.113 52.3125 327.057 52.5552 326.992C52.7978 326.927 52.9985 326.866 53.1572 326.81V324.528L51.1272 324.724C50.7072 324.761 50.4038 324.883 50.2172 325.088C50.0398 325.293 49.9512 325.587 49.9512 325.97C49.9512 326.362 50.0398 326.67 50.2172 326.894C50.3945 327.118 50.6558 327.23 51.0012 327.23ZM58.5045 328.14C58.2898 328.14 58.0285 328.126 57.7205 328.098C57.4218 328.07 57.1232 328.037 56.8245 328C56.5258 327.953 56.2598 327.911 56.0265 327.874L56.0825 326.936C56.3158 326.964 56.5772 326.997 56.8665 327.034C57.1652 327.071 57.4545 327.104 57.7345 327.132C58.0145 327.151 58.2385 327.16 58.4065 327.16C58.7892 327.16 59.1065 327.127 59.3585 327.062C59.6105 326.987 59.8018 326.866 59.9325 326.698C60.0632 326.53 60.1285 326.292 60.1285 325.984C60.1285 325.751 60.0772 325.569 59.9745 325.438C59.8812 325.307 59.6992 325.2 59.4285 325.116C59.1672 325.032 58.7845 324.953 58.2805 324.878C57.7578 324.794 57.3192 324.691 56.9645 324.57C56.6192 324.439 56.3625 324.248 56.1945 323.996C56.0265 323.744 55.9425 323.385 55.9425 322.918C55.9425 322.395 56.0638 321.985 56.3065 321.686C56.5492 321.387 56.8618 321.177 57.2445 321.056C57.6365 320.925 58.0425 320.86 58.4625 320.86C58.7238 320.86 59.0085 320.874 59.3165 320.902C59.6338 320.93 59.9418 320.967 60.2405 321.014C60.5392 321.051 60.7958 321.089 61.0105 321.126L60.9825 322.064C60.7585 322.027 60.4972 321.994 60.1985 321.966C59.8998 321.929 59.6012 321.901 59.3025 321.882C59.0038 321.854 58.7425 321.84 58.5185 321.84C58.2385 321.84 57.9865 321.873 57.7625 321.938C57.5385 321.994 57.3612 322.097 57.2305 322.246C57.0998 322.395 57.0345 322.605 57.0345 322.876C57.0345 323.081 57.0812 323.249 57.1745 323.38C57.2678 323.501 57.4452 323.604 57.7065 323.688C57.9678 323.772 58.3458 323.856 58.8405 323.94C59.4192 324.033 59.8812 324.15 60.2265 324.29C60.5812 324.43 60.8378 324.626 60.9965 324.878C61.1552 325.13 61.2345 325.485 61.2345 325.942C61.2345 326.763 60.9918 327.337 60.5065 327.664C60.0212 327.981 59.3538 328.14 58.5045 328.14ZM65.026 328.14C64.8113 328.14 64.55 328.126 64.242 328.098C63.9433 328.07 63.6447 328.037 63.346 328C63.0473 327.953 62.7813 327.911 62.548 327.874L62.604 326.936C62.8373 326.964 63.0987 326.997 63.388 327.034C63.6867 327.071 63.976 327.104 64.256 327.132C64.536 327.151 64.76 327.16 64.928 327.16C65.3107 327.16 65.628 327.127 65.88 327.062C66.132 326.987 66.3233 326.866 66.454 326.698C66.5847 326.53 66.65 326.292 66.65 325.984C66.65 325.751 66.5987 325.569 66.496 325.438C66.4027 325.307 66.2207 325.2 65.95 325.116C65.6887 325.032 65.306 324.953 64.802 324.878C64.2793 324.794 63.8407 324.691 63.486 324.57C63.1407 324.439 62.884 324.248 62.716 323.996C62.548 323.744 62.464 323.385 62.464 322.918C62.464 322.395 62.5853 321.985 62.828 321.686C63.0707 321.387 63.3833 321.177 63.766 321.056C64.158 320.925 64.564 320.86 64.984 320.86C65.2453 320.86 65.53 320.874 65.838 320.902C66.1553 320.93 66.4633 320.967 66.762 321.014C67.0607 321.051 67.3173 321.089 67.532 321.126L67.504 322.064C67.28 322.027 67.0187 321.994 66.72 321.966C66.4213 321.929 66.1227 321.901 65.824 321.882C65.5253 321.854 65.264 321.84 65.04 321.84C64.76 321.84 64.508 321.873 64.284 321.938C64.06 321.994 63.8827 322.097 63.752 322.246C63.6213 322.395 63.556 322.605 63.556 322.876C63.556 323.081 63.6027 323.249 63.696 323.38C63.7893 323.501 63.9667 323.604 64.228 323.688C64.4893 323.772 64.8673 323.856 65.362 323.94C65.9407 324.033 66.4027 324.15 66.748 324.29C67.1027 324.43 67.3593 324.626 67.518 324.878C67.6767 325.13 67.756 325.485 67.756 325.942C67.756 326.763 67.5133 327.337 67.028 327.664C66.5427 327.981 65.8753 328.14 65.026 328.14ZM70.4415 328L68.7895 321H69.8815L71.2535 327.062H71.4915L73.1295 321.14H74.2635L75.9015 327.062H76.1395L77.5115 321H78.6035L76.9515 328H75.1455L73.6895 322.582L72.2475 328H70.4415ZM82.7292 328.14C81.9452 328.14 81.3339 328.005 80.8952 327.734C80.4659 327.463 80.1625 327.053 79.9852 326.502C79.8172 325.951 79.7332 325.256 79.7332 324.416C79.7332 323.613 79.8265 322.951 80.0132 322.428C80.2092 321.905 80.5265 321.513 80.9652 321.252C81.4039 320.991 81.9919 320.86 82.7292 320.86C83.4759 320.86 84.0685 320.991 84.5072 321.252C84.9459 321.513 85.2585 321.905 85.4452 322.428C85.6412 322.951 85.7392 323.613 85.7392 324.416C85.7392 325.256 85.6505 325.951 85.4732 326.502C85.3052 327.053 85.0019 327.463 84.5632 327.734C84.1339 328.005 83.5225 328.14 82.7292 328.14ZM82.7292 327.202C83.2705 327.202 83.6765 327.109 83.9472 326.922C84.2179 326.726 84.3952 326.423 84.4792 326.012C84.5725 325.601 84.6192 325.069 84.6192 324.416C84.6192 323.772 84.5632 323.259 84.4512 322.876C84.3392 322.493 84.1479 322.218 83.8772 322.05C83.6065 321.882 83.2239 321.798 82.7292 321.798C82.2439 321.798 81.8612 321.882 81.5812 322.05C81.3105 322.218 81.1192 322.493 81.0072 322.876C80.8952 323.259 80.8392 323.772 80.8392 324.416C80.8392 325.069 80.8812 325.601 80.9652 326.012C81.0585 326.423 81.2405 326.726 81.5112 326.922C81.7819 327.109 82.1879 327.202 82.7292 327.202ZM87.4514 328V321H88.5294V321.938C88.7067 321.817 88.9307 321.686 89.2014 321.546C89.472 321.397 89.7707 321.257 90.0974 321.126C90.424 320.995 90.7507 320.902 91.0774 320.846V321.952C90.76 322.017 90.438 322.106 90.1114 322.218C89.7847 322.321 89.4814 322.433 89.2014 322.554C88.9307 322.675 88.7067 322.783 88.5294 322.876V328H87.4514ZM94.5169 328.14C94.2369 328.14 93.9709 328.107 93.7189 328.042C93.4669 327.986 93.2335 327.883 93.0189 327.734C92.8135 327.585 92.6315 327.379 92.4729 327.118C92.3142 326.847 92.1929 326.502 92.1089 326.082C92.0249 325.662 91.9829 325.153 91.9829 324.556C91.9829 323.725 92.0809 323.039 92.2769 322.498C92.4729 321.947 92.7855 321.537 93.2149 321.266C93.6442 320.995 94.2135 320.86 94.9229 320.86C95.1935 320.86 95.4969 320.883 95.8329 320.93C96.1689 320.967 96.4302 321.005 96.6169 321.042V317.962H97.7089V328H96.6309V327.538C96.4815 327.622 96.2855 327.711 96.0429 327.804C95.8095 327.897 95.5575 327.977 95.2869 328.042C95.0255 328.107 94.7689 328.14 94.5169 328.14ZM94.6569 327.16C94.8995 327.16 95.1422 327.132 95.3849 327.076C95.6369 327.02 95.8702 326.955 96.0849 326.88C96.2995 326.796 96.4769 326.721 96.6169 326.656V321.966C96.5049 321.947 96.3509 321.929 96.1549 321.91C95.9589 321.882 95.7535 321.859 95.5389 321.84C95.3335 321.821 95.1469 321.812 94.9789 321.812C94.5029 321.812 94.1295 321.915 93.8589 322.12C93.5882 322.325 93.3922 322.633 93.2709 323.044C93.1589 323.445 93.1029 323.949 93.1029 324.556C93.1029 325.116 93.1449 325.569 93.2289 325.914C93.3129 326.25 93.4249 326.511 93.5649 326.698C93.7142 326.875 93.8822 326.997 94.0689 327.062C94.2555 327.127 94.4515 327.16 94.6569 327.16Z" fill="#487790"/>
<rect x="40" y="467" width="320" height="48" rx="8" fill="#EA5501"/>
<path d="M179.944 498V485.706H182.428V495.894H187.288V498H179.944ZM192.371 498.198C191.351 498.198 190.529 498.03 189.905 497.694C189.293 497.358 188.849 496.842 188.573 496.146C188.297 495.438 188.159 494.526 188.159 493.41C188.159 492.33 188.303 491.454 188.591 490.782C188.879 490.098 189.335 489.594 189.959 489.27C190.583 488.934 191.387 488.766 192.371 488.766C193.367 488.766 194.171 488.934 194.783 489.27C195.407 489.594 195.863 490.098 196.151 490.782C196.451 491.454 196.601 492.33 196.601 493.41C196.601 494.526 196.463 495.438 196.187 496.146C195.911 496.842 195.461 497.358 194.837 497.694C194.225 498.03 193.403 498.198 192.371 498.198ZM192.371 496.218C192.875 496.218 193.253 496.128 193.505 495.948C193.757 495.756 193.925 495.456 194.009 495.048C194.105 494.628 194.153 494.082 194.153 493.41C194.153 492.75 194.099 492.228 193.991 491.844C193.883 491.448 193.703 491.166 193.451 490.998C193.199 490.83 192.839 490.746 192.371 490.746C191.915 490.746 191.555 490.83 191.291 490.998C191.039 491.166 190.859 491.448 190.751 491.844C190.643 492.228 190.589 492.75 190.589 493.41C190.589 494.082 190.631 494.628 190.715 495.048C190.811 495.456 190.985 495.756 191.237 495.948C191.489 496.128 191.867 496.218 192.371 496.218ZM202.217 502.122C201.257 502.122 200.453 502.05 199.805 501.906C199.169 501.762 198.689 501.498 198.365 501.114C198.041 500.742 197.879 500.202 197.879 499.494C197.879 499.182 197.921 498.9 198.005 498.648C198.101 498.408 198.245 498.18 198.437 497.964C198.641 497.748 198.893 497.526 199.193 497.298C199.025 497.178 198.887 497.004 198.779 496.776C198.683 496.536 198.635 496.278 198.635 496.002C198.635 495.858 198.719 495.648 198.887 495.372C199.067 495.084 199.241 494.832 199.409 494.616C199.169 494.508 198.941 494.352 198.725 494.148C198.509 493.932 198.329 493.644 198.185 493.284C198.053 492.924 197.987 492.462 197.987 491.898C197.987 490.758 198.311 489.954 198.959 489.486C199.619 489.006 200.555 488.766 201.767 488.766C202.079 488.766 202.415 488.79 202.775 488.838C203.135 488.886 203.423 488.934 203.639 488.982L206.573 488.928V490.548L205.205 490.53C205.313 490.674 205.409 490.86 205.493 491.088C205.589 491.304 205.637 491.574 205.637 491.898C205.637 492.726 205.493 493.368 205.205 493.824C204.929 494.28 204.509 494.598 203.945 494.778C203.381 494.946 202.667 495.03 201.803 495.03C201.707 495.03 201.575 495.024 201.407 495.012C201.239 494.988 201.101 494.97 200.993 494.958C200.945 495.078 200.897 495.216 200.849 495.372C200.801 495.516 200.777 495.618 200.777 495.678C200.777 495.834 200.825 495.954 200.921 496.038C201.029 496.122 201.239 496.182 201.551 496.218C201.875 496.242 202.361 496.254 203.009 496.254C203.861 496.254 204.539 496.332 205.043 496.488C205.559 496.644 205.925 496.92 206.141 497.316C206.357 497.712 206.465 498.27 206.465 498.99C206.465 500.058 206.087 500.844 205.331 501.348C204.587 501.864 203.549 502.122 202.217 502.122ZM202.091 500.34C202.835 500.34 203.369 500.25 203.693 500.07C204.029 499.902 204.197 499.62 204.197 499.224C204.197 498.912 204.137 498.684 204.017 498.54C203.909 498.396 203.723 498.3 203.459 498.252C203.195 498.216 202.835 498.198 202.379 498.198C202.259 498.198 202.115 498.192 201.947 498.18C201.779 498.18 201.605 498.174 201.425 498.162C201.257 498.162 201.101 498.156 200.957 498.144C200.825 498.132 200.729 498.126 200.669 498.126C200.405 498.306 200.225 498.468 200.129 498.612C200.033 498.768 199.985 498.972 199.985 499.224C199.985 499.5 200.051 499.716 200.183 499.872C200.315 500.04 200.531 500.16 200.831 500.232C201.143 500.304 201.563 500.34 202.091 500.34ZM201.785 493.338C202.337 493.338 202.727 493.23 202.955 493.014C203.195 492.786 203.315 492.414 203.315 491.898C203.315 491.382 203.195 491.01 202.955 490.782C202.727 490.554 202.337 490.44 201.785 490.44C201.257 490.44 200.873 490.554 200.633 490.782C200.405 491.01 200.291 491.382 200.291 491.898C200.291 492.414 200.405 492.786 200.633 493.014C200.873 493.23 201.257 493.338 201.785 493.338ZM207.837 498V488.964H210.231V498H207.837ZM207.837 487.524V485.472H210.249V487.524H207.837ZM212.231 498V488.964H214.625V489.54C214.817 489.42 215.051 489.306 215.327 489.198C215.603 489.078 215.891 488.976 216.191 488.892C216.503 488.808 216.803 488.766 217.091 488.766C217.931 488.766 218.579 488.916 219.035 489.216C219.503 489.504 219.833 489.984 220.025 490.656C220.217 491.316 220.313 492.204 220.313 493.32V498H217.901V493.446C217.901 492.822 217.865 492.324 217.793 491.952C217.721 491.568 217.583 491.292 217.379 491.124C217.175 490.956 216.875 490.872 216.479 490.872C216.263 490.872 216.035 490.896 215.795 490.944C215.567 490.98 215.345 491.034 215.129 491.106C214.925 491.178 214.757 491.25 214.625 491.322V498H212.231Z" fill="white"/>
<path d="M225.176 411V401.326H230.986V402.32H226.296V406.044H230.258V407.038H226.296V411H225.176ZM235.065 411.14C234.281 411.14 233.67 411.005 233.231 410.734C232.802 410.463 232.498 410.053 232.321 409.502C232.153 408.951 232.069 408.256 232.069 407.416C232.069 406.613 232.162 405.951 232.349 405.428C232.545 404.905 232.862 404.513 233.301 404.252C233.74 403.991 234.328 403.86 235.065 403.86C235.812 403.86 236.404 403.991 236.843 404.252C237.282 404.513 237.594 404.905 237.781 405.428C237.977 405.951 238.075 406.613 238.075 407.416C238.075 408.256 237.986 408.951 237.809 409.502C237.641 410.053 237.338 410.463 236.899 410.734C236.47 411.005 235.858 411.14 235.065 411.14ZM235.065 410.202C235.606 410.202 236.012 410.109 236.283 409.922C236.554 409.726 236.731 409.423 236.815 409.012C236.908 408.601 236.955 408.069 236.955 407.416C236.955 406.772 236.899 406.259 236.787 405.876C236.675 405.493 236.484 405.218 236.213 405.05C235.942 404.882 235.56 404.798 235.065 404.798C234.58 404.798 234.197 404.882 233.917 405.05C233.646 405.218 233.455 405.493 233.343 405.876C233.231 406.259 233.175 406.772 233.175 407.416C233.175 408.069 233.217 408.601 233.301 409.012C233.394 409.423 233.576 409.726 233.847 409.922C234.118 410.109 234.524 410.202 235.065 410.202ZM239.787 411V404H240.865V404.938C241.043 404.817 241.267 404.686 241.537 404.546C241.808 404.397 242.107 404.257 242.433 404.126C242.76 403.995 243.087 403.902 243.413 403.846V404.952C243.096 405.017 242.774 405.106 242.447 405.218C242.121 405.321 241.817 405.433 241.537 405.554C241.267 405.675 241.043 405.783 240.865 405.876V411H239.787ZM247.343 414.29C246.615 414.29 246.027 414.225 245.579 414.094C245.14 413.973 244.818 413.758 244.613 413.45C244.417 413.142 244.319 412.722 244.319 412.19C244.319 411.919 244.361 411.686 244.445 411.49C244.529 411.303 244.65 411.131 244.809 410.972C244.977 410.804 245.182 410.631 245.425 410.454C245.303 410.361 245.205 410.23 245.131 410.062C245.065 409.885 245.033 409.689 245.033 409.474C245.033 409.371 245.084 409.208 245.187 408.984C245.299 408.751 245.406 408.545 245.509 408.368C245.313 408.275 245.131 408.149 244.963 407.99C244.804 407.822 244.673 407.598 244.571 407.318C244.468 407.038 244.417 406.683 244.417 406.254C244.417 405.395 244.659 404.784 245.145 404.42C245.63 404.047 246.26 403.86 247.035 403.86C247.287 403.86 247.553 403.879 247.833 403.916C248.113 403.953 248.332 403.995 248.491 404.042L250.577 403.986V404.91L249.261 404.882C249.391 405.013 249.499 405.185 249.583 405.4C249.676 405.615 249.723 405.899 249.723 406.254C249.723 406.861 249.62 407.337 249.415 407.682C249.209 408.027 248.906 408.27 248.505 408.41C248.103 408.55 247.599 408.62 246.993 408.62C246.927 408.62 246.815 408.615 246.657 408.606C246.507 408.587 246.395 408.573 246.321 408.564C246.265 408.695 246.209 408.844 246.153 409.012C246.097 409.18 246.069 409.297 246.069 409.362C246.069 409.539 246.101 409.675 246.167 409.768C246.232 409.861 246.381 409.922 246.615 409.95C246.857 409.978 247.235 409.992 247.749 409.992C248.421 409.992 248.957 410.048 249.359 410.16C249.76 410.272 250.045 410.477 250.213 410.776C250.39 411.065 250.479 411.49 250.479 412.05C250.479 412.843 250.203 413.413 249.653 413.758C249.102 414.113 248.332 414.29 247.343 414.29ZM247.357 413.366C248.047 413.366 248.556 413.268 248.883 413.072C249.209 412.876 249.373 412.554 249.373 412.106C249.373 411.761 249.317 411.504 249.205 411.336C249.102 411.177 248.925 411.07 248.673 411.014C248.421 410.967 248.085 410.944 247.665 410.944C247.581 410.944 247.464 410.944 247.315 410.944C247.165 410.935 247.011 410.93 246.853 410.93C246.694 410.921 246.549 410.911 246.419 410.902C246.297 410.893 246.213 410.888 246.167 410.888C245.877 411.093 245.677 411.275 245.565 411.434C245.453 411.602 245.397 411.821 245.397 412.092C245.397 412.4 245.453 412.647 245.565 412.834C245.677 413.021 245.873 413.156 246.153 413.24C246.442 413.324 246.843 413.366 247.357 413.366ZM247.035 407.752C247.613 407.752 248.024 407.64 248.267 407.416C248.509 407.183 248.631 406.795 248.631 406.254C248.631 405.713 248.509 405.325 248.267 405.092C248.024 404.859 247.613 404.742 247.035 404.742C246.493 404.742 246.101 404.859 245.859 405.092C245.625 405.325 245.509 405.713 245.509 406.254C245.509 406.795 245.625 407.183 245.859 407.416C246.101 407.64 246.493 407.752 247.035 407.752ZM254.534 411.14C253.75 411.14 253.139 411.005 252.7 410.734C252.271 410.463 251.967 410.053 251.79 409.502C251.622 408.951 251.538 408.256 251.538 407.416C251.538 406.613 251.631 405.951 251.818 405.428C252.014 404.905 252.331 404.513 252.77 404.252C253.209 403.991 253.797 403.86 254.534 403.86C255.281 403.86 255.873 403.991 256.312 404.252C256.751 404.513 257.063 404.905 257.25 405.428C257.446 405.951 257.544 406.613 257.544 407.416C257.544 408.256 257.455 408.951 257.278 409.502C257.11 410.053 256.807 410.463 256.368 410.734C255.939 411.005 255.327 411.14 254.534 411.14ZM254.534 410.202C255.075 410.202 255.481 410.109 255.752 409.922C256.023 409.726 256.2 409.423 256.284 409.012C256.377 408.601 256.424 408.069 256.424 407.416C256.424 406.772 256.368 406.259 256.256 405.876C256.144 405.493 255.953 405.218 255.682 405.05C255.411 404.882 255.029 404.798 254.534 404.798C254.049 404.798 253.666 404.882 253.386 405.05C253.115 405.218 252.924 405.493 252.812 405.876C252.7 406.259 252.644 406.772 252.644 407.416C252.644 408.069 252.686 408.601 252.77 409.012C252.863 409.423 253.045 409.726 253.316 409.922C253.587 410.109 253.993 410.202 254.534 410.202ZM261.552 411.154C261.067 411.154 260.679 411.079 260.39 410.93C260.11 410.781 259.909 410.524 259.788 410.16C259.667 409.787 259.606 409.264 259.606 408.592V404.938H258.612V404H259.606V401.858H260.684V404H262.882V404.938H260.684V408.27C260.684 408.765 260.703 409.152 260.74 409.432C260.787 409.703 260.88 409.894 261.02 410.006C261.16 410.118 261.379 410.174 261.678 410.174C261.771 410.174 261.893 410.169 262.042 410.16C262.191 410.151 262.341 410.141 262.49 410.132C262.649 410.113 262.789 410.099 262.91 410.09L262.98 411C262.775 411.028 262.532 411.061 262.252 411.098C261.972 411.135 261.739 411.154 261.552 411.154ZM268.696 414.094L269.606 411H268.556L266.582 404H267.674L269.382 410.062H269.858L271.58 404H272.672L269.788 414.094H268.696ZM276.71 411.14C275.926 411.14 275.314 411.005 274.876 410.734C274.446 410.463 274.143 410.053 273.966 409.502C273.798 408.951 273.714 408.256 273.714 407.416C273.714 406.613 273.807 405.951 273.994 405.428C274.19 404.905 274.507 404.513 274.946 404.252C275.384 403.991 275.972 403.86 276.71 403.86C277.456 403.86 278.049 403.991 278.488 404.252C278.926 404.513 279.239 404.905 279.426 405.428C279.622 405.951 279.72 406.613 279.72 407.416C279.72 408.256 279.631 408.951 279.454 409.502C279.286 410.053 278.982 410.463 278.544 410.734C278.114 411.005 277.503 411.14 276.71 411.14ZM276.71 410.202C277.251 410.202 277.657 410.109 277.928 409.922C278.198 409.726 278.376 409.423 278.46 409.012C278.553 408.601 278.6 408.069 278.6 407.416C278.6 406.772 278.544 406.259 278.432 405.876C278.32 405.493 278.128 405.218 277.858 405.05C277.587 404.882 277.204 404.798 276.71 404.798C276.224 404.798 275.842 404.882 275.562 405.05C275.291 405.218 275.1 405.493 274.988 405.876C274.876 406.259 274.82 406.772 274.82 407.416C274.82 408.069 274.862 408.601 274.946 409.012C275.039 409.423 275.221 409.726 275.492 409.922C275.762 410.109 276.168 410.202 276.71 410.202ZM283.56 411.14C282.962 411.14 282.505 411.019 282.188 410.776C281.87 410.533 281.651 410.155 281.53 409.642C281.418 409.129 281.362 408.466 281.362 407.654V404H282.44V407.654C282.44 408.27 282.468 408.76 282.524 409.124C282.589 409.488 282.724 409.754 282.93 409.922C283.135 410.081 283.443 410.16 283.854 410.16C284.264 410.16 284.638 410.104 284.974 409.992C285.31 409.88 285.58 409.768 285.786 409.656V404H286.864V411H285.786V410.51C285.487 410.678 285.16 410.827 284.806 410.958C284.46 411.079 284.045 411.14 283.56 411.14ZM288.883 411V404H289.961V404.938C290.138 404.817 290.362 404.686 290.633 404.546C290.904 404.397 291.202 404.257 291.529 404.126C291.856 403.995 292.182 403.902 292.509 403.846V404.952C292.192 405.017 291.87 405.106 291.543 405.218C291.216 405.321 290.913 405.433 290.633 405.554C290.362 405.675 290.138 405.783 289.961 405.876V411H288.883ZM296.813 414.094V404H297.891V404.504C298.04 404.411 298.227 404.317 298.451 404.224C298.684 404.121 298.931 404.037 299.193 403.972C299.454 403.897 299.706 403.86 299.949 403.86C300.835 403.86 301.484 404.145 301.895 404.714C302.305 405.274 302.511 406.175 302.511 407.416C302.511 408.331 302.403 409.063 302.189 409.614C301.983 410.155 301.652 410.547 301.195 410.79C300.747 411.023 300.163 411.14 299.445 411.14C299.155 411.14 298.861 411.121 298.563 411.084C298.273 411.047 298.049 411.014 297.891 410.986V414.094H296.813ZM299.389 410.188C299.893 410.188 300.289 410.095 300.579 409.908C300.877 409.721 301.087 409.427 301.209 409.026C301.33 408.615 301.391 408.079 301.391 407.416C301.391 406.473 301.251 405.811 300.971 405.428C300.691 405.036 300.299 404.84 299.795 404.84C299.571 404.84 299.337 404.868 299.095 404.924C298.861 404.98 298.637 405.05 298.423 405.134C298.208 405.209 298.031 405.288 297.891 405.372V410.048C298.04 410.067 298.259 410.095 298.549 410.132C298.838 410.169 299.118 410.188 299.389 410.188ZM305.735 411.14C305.091 411.14 304.601 410.958 304.265 410.594C303.929 410.23 303.761 409.698 303.761 408.998C303.761 408.541 303.841 408.167 303.999 407.878C304.158 407.589 304.396 407.369 304.713 407.22C305.04 407.061 305.441 406.963 305.917 406.926L308.073 406.716V406.114C308.073 405.638 307.966 405.302 307.751 405.106C307.546 404.91 307.238 404.812 306.827 404.812C306.594 404.812 306.314 404.821 305.987 404.84C305.67 404.859 305.353 404.882 305.035 404.91C304.718 404.938 304.438 404.966 304.195 404.994L304.139 404.168C304.363 404.121 304.634 404.075 304.951 404.028C305.269 403.981 305.6 403.944 305.945 403.916C306.291 403.879 306.608 403.86 306.897 403.86C307.429 403.86 307.863 403.944 308.199 404.112C308.535 404.271 308.778 404.518 308.927 404.854C309.086 405.181 309.165 405.601 309.165 406.114V409.656C309.184 409.861 309.263 410.011 309.403 410.104C309.553 410.197 309.739 410.258 309.963 410.286L309.921 411.14C309.716 411.14 309.529 411.126 309.361 411.098C309.193 411.079 309.035 411.047 308.885 411C308.764 410.953 308.647 410.897 308.535 410.832C308.433 410.767 308.33 410.687 308.227 410.594C308.05 410.669 307.821 410.748 307.541 410.832C307.271 410.916 306.977 410.986 306.659 411.042C306.351 411.107 306.043 411.14 305.735 411.14ZM305.917 410.23C306.169 410.23 306.431 410.207 306.701 410.16C306.972 410.113 307.229 410.057 307.471 409.992C307.714 409.927 307.915 409.866 308.073 409.81V407.528L306.043 407.724C305.623 407.761 305.32 407.883 305.133 408.088C304.956 408.293 304.867 408.587 304.867 408.97C304.867 409.362 304.956 409.67 305.133 409.894C305.311 410.118 305.572 410.23 305.917 410.23ZM313.421 411.14C313.206 411.14 312.945 411.126 312.637 411.098C312.338 411.07 312.039 411.037 311.741 411C311.442 410.953 311.176 410.911 310.943 410.874L310.999 409.936C311.232 409.964 311.493 409.997 311.783 410.034C312.081 410.071 312.371 410.104 312.651 410.132C312.931 410.151 313.155 410.16 313.323 410.16C313.705 410.16 314.023 410.127 314.275 410.062C314.527 409.987 314.718 409.866 314.849 409.698C314.979 409.53 315.045 409.292 315.045 408.984C315.045 408.751 314.993 408.569 314.891 408.438C314.797 408.307 314.615 408.2 314.345 408.116C314.083 408.032 313.701 407.953 313.197 407.878C312.674 407.794 312.235 407.691 311.881 407.57C311.535 407.439 311.279 407.248 311.111 406.996C310.943 406.744 310.859 406.385 310.859 405.918C310.859 405.395 310.98 404.985 311.223 404.686C311.465 404.387 311.778 404.177 312.161 404.056C312.553 403.925 312.959 403.86 313.379 403.86C313.64 403.86 313.925 403.874 314.233 403.902C314.55 403.93 314.858 403.967 315.157 404.014C315.455 404.051 315.712 404.089 315.927 404.126L315.899 405.064C315.675 405.027 315.413 404.994 315.115 404.966C314.816 404.929 314.517 404.901 314.219 404.882C313.92 404.854 313.659 404.84 313.435 404.84C313.155 404.84 312.903 404.873 312.679 404.938C312.455 404.994 312.277 405.097 312.147 405.246C312.016 405.395 311.951 405.605 311.951 405.876C311.951 406.081 311.997 406.249 312.091 406.38C312.184 406.501 312.361 406.604 312.623 406.688C312.884 406.772 313.262 406.856 313.757 406.94C314.335 407.033 314.797 407.15 315.143 407.29C315.497 407.43 315.754 407.626 315.913 407.878C316.071 408.13 316.151 408.485 316.151 408.942C316.151 409.763 315.908 410.337 315.423 410.664C314.937 410.981 314.27 411.14 313.421 411.14ZM319.942 411.14C319.727 411.14 319.466 411.126 319.158 411.098C318.859 411.07 318.561 411.037 318.262 411C317.963 410.953 317.697 410.911 317.464 410.874L317.52 409.936C317.753 409.964 318.015 409.997 318.304 410.034C318.603 410.071 318.892 410.104 319.172 410.132C319.452 410.151 319.676 410.16 319.844 410.16C320.227 410.16 320.544 410.127 320.796 410.062C321.048 409.987 321.239 409.866 321.37 409.698C321.501 409.53 321.566 409.292 321.566 408.984C321.566 408.751 321.515 408.569 321.412 408.438C321.319 408.307 321.137 408.2 320.866 408.116C320.605 408.032 320.222 407.953 319.718 407.878C319.195 407.794 318.757 407.691 318.402 407.57C318.057 407.439 317.8 407.248 317.632 406.996C317.464 406.744 317.38 406.385 317.38 405.918C317.38 405.395 317.501 404.985 317.744 404.686C317.987 404.387 318.299 404.177 318.682 404.056C319.074 403.925 319.48 403.86 319.9 403.86C320.161 403.86 320.446 403.874 320.754 403.902C321.071 403.93 321.379 403.967 321.678 404.014C321.977 404.051 322.233 404.089 322.448 404.126L322.42 405.064C322.196 405.027 321.935 404.994 321.636 404.966C321.337 404.929 321.039 404.901 320.74 404.882C320.441 404.854 320.18 404.84 319.956 404.84C319.676 404.84 319.424 404.873 319.2 404.938C318.976 404.994 318.799 405.097 318.668 405.246C318.537 405.395 318.472 405.605 318.472 405.876C318.472 406.081 318.519 406.249 318.612 406.38C318.705 406.501 318.883 406.604 319.144 406.688C319.405 406.772 319.783 406.856 320.278 406.94C320.857 407.033 321.319 407.15 321.664 407.29C322.019 407.43 322.275 407.626 322.434 407.878C322.593 408.13 322.672 408.485 322.672 408.942C322.672 409.763 322.429 410.337 321.944 410.664C321.459 410.981 320.791 411.14 319.942 411.14ZM325.357 411L323.705 404H324.797L326.169 410.062H326.407L328.045 404.14H329.179L330.817 410.062H331.055L332.427 404H333.519L331.867 411H330.061L328.605 405.582L327.163 411H325.357ZM337.645 411.14C336.861 411.14 336.25 411.005 335.811 410.734C335.382 410.463 335.079 410.053 334.901 409.502C334.733 408.951 334.649 408.256 334.649 407.416C334.649 406.613 334.743 405.951 334.929 405.428C335.125 404.905 335.443 404.513 335.881 404.252C336.32 403.991 336.908 403.86 337.645 403.86C338.392 403.86 338.985 403.991 339.423 404.252C339.862 404.513 340.175 404.905 340.361 405.428C340.557 405.951 340.655 406.613 340.655 407.416C340.655 408.256 340.567 408.951 340.389 409.502C340.221 410.053 339.918 410.463 339.479 410.734C339.05 411.005 338.439 411.14 337.645 411.14ZM337.645 410.202C338.187 410.202 338.593 410.109 338.863 409.922C339.134 409.726 339.311 409.423 339.395 409.012C339.489 408.601 339.535 408.069 339.535 407.416C339.535 406.772 339.479 406.259 339.367 405.876C339.255 405.493 339.064 405.218 338.793 405.05C338.523 404.882 338.14 404.798 337.645 404.798C337.16 404.798 336.777 404.882 336.497 405.05C336.227 405.218 336.035 405.493 335.923 405.876C335.811 406.259 335.755 406.772 335.755 407.416C335.755 408.069 335.797 408.601 335.881 409.012C335.975 409.423 336.157 409.726 336.427 409.922C336.698 410.109 337.104 410.202 337.645 410.202ZM342.367 411V404H343.445V404.938C343.623 404.817 343.847 404.686 344.117 404.546C344.388 404.397 344.687 404.257 345.013 404.126C345.34 403.995 345.667 403.902 345.993 403.846V404.952C345.676 405.017 345.354 405.106 345.027 405.218C344.701 405.321 344.397 405.433 344.117 405.554C343.847 405.675 343.623 405.783 343.445 405.876V411H342.367ZM349.433 411.14C349.153 411.14 348.887 411.107 348.635 411.042C348.383 410.986 348.15 410.883 347.935 410.734C347.73 410.585 347.548 410.379 347.389 410.118C347.23 409.847 347.109 409.502 347.025 409.082C346.941 408.662 346.899 408.153 346.899 407.556C346.899 406.725 346.997 406.039 347.193 405.498C347.389 404.947 347.702 404.537 348.131 404.266C348.56 403.995 349.13 403.86 349.839 403.86C350.11 403.86 350.413 403.883 350.749 403.93C351.085 403.967 351.346 404.005 351.533 404.042V400.962H352.625V411H351.547V410.538C351.398 410.622 351.202 410.711 350.959 410.804C350.726 410.897 350.474 410.977 350.203 411.042C349.942 411.107 349.685 411.14 349.433 411.14ZM349.573 410.16C349.816 410.16 350.058 410.132 350.301 410.076C350.553 410.02 350.786 409.955 351.001 409.88C351.216 409.796 351.393 409.721 351.533 409.656V404.966C351.421 404.947 351.267 404.929 351.071 404.91C350.875 404.882 350.67 404.859 350.455 404.84C350.25 404.821 350.063 404.812 349.895 404.812C349.419 404.812 349.046 404.915 348.775 405.12C348.504 405.325 348.308 405.633 348.187 406.044C348.075 406.445 348.019 406.949 348.019 407.556C348.019 408.116 348.061 408.569 348.145 408.914C348.229 409.25 348.341 409.511 348.481 409.698C348.63 409.875 348.798 409.997 348.985 410.062C349.172 410.127 349.368 410.16 349.573 410.16ZM355.877 408.172C355.839 408.069 355.797 407.943 355.751 407.794C355.704 407.645 355.681 407.481 355.681 407.304C355.681 407.08 355.737 406.87 355.849 406.674C355.961 406.469 356.115 406.268 356.311 406.072C356.507 405.876 356.726 405.671 356.969 405.456C357.305 405.167 357.561 404.929 357.739 404.742C357.916 404.546 358.037 404.359 358.103 404.182C358.168 403.995 358.201 403.771 358.201 403.51C358.201 403.025 358.051 402.679 357.753 402.474C357.463 402.269 357.006 402.166 356.381 402.166C356.194 402.166 355.965 402.185 355.695 402.222C355.433 402.25 355.172 402.292 354.911 402.348C354.649 402.395 354.421 402.441 354.225 402.488L354.141 401.606C354.346 401.541 354.589 401.475 354.869 401.41C355.149 401.345 355.433 401.289 355.723 401.242C356.012 401.195 356.269 401.172 356.493 401.172C357.435 401.172 358.14 401.345 358.607 401.69C359.083 402.035 359.321 402.614 359.321 403.426C359.321 403.827 359.288 404.159 359.223 404.42C359.157 404.681 359.031 404.929 358.845 405.162C358.658 405.386 358.383 405.652 358.019 405.96C357.608 406.305 357.3 406.604 357.095 406.856C356.889 407.099 356.787 407.374 356.787 407.682V408.172H355.877ZM355.723 410.986V409.376H356.899V410.986H355.723Z" fill="#EA5501"/>
<path d="M61.008 410V401.708H64.092C64.676 401.708 65.164 401.796 65.556 401.972C65.956 402.148 66.256 402.424 66.456 402.8C66.656 403.168 66.756 403.644 66.756 404.228C66.756 404.836 66.632 405.348 66.384 405.764C66.144 406.18 65.764 406.472 65.244 406.64L66.828 410H65.76L64.296 406.844H61.968V410H61.008ZM61.968 406.004H64.104C64.512 406.004 64.836 405.928 65.076 405.776C65.324 405.624 65.5 405.416 65.604 405.152C65.708 404.88 65.76 404.576 65.76 404.24C65.76 403.672 65.624 403.248 65.352 402.968C65.08 402.688 64.66 402.548 64.092 402.548H61.968V406.004ZM70.3825 410.12C69.7825 410.12 69.3065 410.004 68.9545 409.772C68.6105 409.54 68.3625 409.196 68.2105 408.74C68.0585 408.284 67.9825 407.716 67.9825 407.036C67.9825 406.276 68.0865 405.668 68.2945 405.212C68.5025 404.748 68.7945 404.412 69.1705 404.204C69.5465 403.988 69.9905 403.88 70.5025 403.88C71.3025 403.88 71.9065 404.104 72.3145 404.552C72.7225 404.992 72.9265 405.704 72.9265 406.688L72.8785 407.396H68.9305C68.9385 408.02 69.0545 408.492 69.2785 408.812C69.5025 409.132 69.9065 409.292 70.4905 409.292C70.7145 409.292 70.9585 409.288 71.2225 409.28C71.4945 409.264 71.7625 409.248 72.0265 409.232C72.2905 409.216 72.5145 409.2 72.6985 409.184L72.7225 409.916C72.5305 409.948 72.2945 409.98 72.0145 410.012C71.7425 410.044 71.4625 410.068 71.1745 410.084C70.8865 410.108 70.6225 410.12 70.3825 410.12ZM68.9305 406.64H71.9905C71.9905 405.904 71.8705 405.392 71.6305 405.104C71.3985 404.808 71.0225 404.66 70.5025 404.66C69.9985 404.66 69.6105 404.812 69.3385 405.116C69.0665 405.42 68.9305 405.928 68.9305 406.64ZM74.3171 410V404H75.2411V404.42C75.4331 404.308 75.6931 404.192 76.0211 404.072C76.3491 403.944 76.6651 403.88 76.9691 403.88C77.3691 403.88 77.6891 403.928 77.9291 404.024C78.1771 404.12 78.3771 404.276 78.5291 404.492C78.6891 404.404 78.8851 404.312 79.1171 404.216C79.3491 404.12 79.5971 404.04 79.8611 403.976C80.1331 403.912 80.3971 403.88 80.6531 403.88C81.1971 403.88 81.6131 403.976 81.9011 404.168C82.1971 404.352 82.4011 404.66 82.5131 405.092C82.6251 405.524 82.6811 406.1 82.6811 406.82V410H81.7571V406.856C81.7571 406.336 81.7251 405.92 81.6611 405.608C81.6051 405.296 81.4891 405.072 81.3131 404.936C81.1371 404.792 80.8691 404.72 80.5091 404.72C80.1891 404.72 79.8731 404.768 79.5611 404.864C79.2571 404.96 79.0211 405.056 78.8531 405.152C78.9091 405.36 78.9451 405.62 78.9611 405.932C78.9851 406.236 78.9971 406.552 78.9971 406.88V410H78.0731V406.904C78.0731 406.36 78.0451 405.932 77.9891 405.62C77.9331 405.3 77.8131 405.072 77.6291 404.936C77.4531 404.792 77.1851 404.72 76.8251 404.72C76.5211 404.72 76.2211 404.768 75.9251 404.864C75.6291 404.96 75.4011 405.056 75.2411 405.152V410H74.3171ZM86.4724 410.12C85.8724 410.12 85.3964 410.004 85.0444 409.772C84.7004 409.54 84.4524 409.196 84.3004 408.74C84.1484 408.284 84.0724 407.716 84.0724 407.036C84.0724 406.276 84.1764 405.668 84.3844 405.212C84.5924 404.748 84.8844 404.412 85.2604 404.204C85.6364 403.988 86.0804 403.88 86.5924 403.88C87.3924 403.88 87.9964 404.104 88.4044 404.552C88.8124 404.992 89.0164 405.704 89.0164 406.688L88.9684 407.396H85.0204C85.0284 408.02 85.1444 408.492 85.3684 408.812C85.5924 409.132 85.9964 409.292 86.5804 409.292C86.8044 409.292 87.0484 409.288 87.3124 409.28C87.5844 409.264 87.8524 409.248 88.1164 409.232C88.3804 409.216 88.6044 409.2 88.7884 409.184L88.8124 409.916C88.6204 409.948 88.3844 409.98 88.1044 410.012C87.8324 410.044 87.5524 410.068 87.2644 410.084C86.9764 410.108 86.7124 410.12 86.4724 410.12ZM85.0204 406.64H88.0804C88.0804 405.904 87.9604 405.392 87.7204 405.104C87.4884 404.808 87.1124 404.66 86.5924 404.66C86.0884 404.66 85.7004 404.812 85.4284 405.116C85.1564 405.42 85.0204 405.928 85.0204 406.64ZM90.407 410V404H91.331V404.42C91.523 404.308 91.783 404.192 92.111 404.072C92.439 403.944 92.755 403.88 93.059 403.88C93.459 403.88 93.779 403.928 94.019 404.024C94.267 404.12 94.467 404.276 94.619 404.492C94.779 404.404 94.975 404.312 95.207 404.216C95.439 404.12 95.687 404.04 95.951 403.976C96.223 403.912 96.487 403.88 96.743 403.88C97.287 403.88 97.703 403.976 97.991 404.168C98.287 404.352 98.491 404.66 98.603 405.092C98.715 405.524 98.771 406.1 98.771 406.82V410H97.847V406.856C97.847 406.336 97.815 405.92 97.751 405.608C97.695 405.296 97.579 405.072 97.403 404.936C97.227 404.792 96.959 404.72 96.599 404.72C96.279 404.72 95.963 404.768 95.651 404.864C95.347 404.96 95.111 405.056 94.943 405.152C94.999 405.36 95.035 405.62 95.051 405.932C95.075 406.236 95.087 406.552 95.087 406.88V410H94.163V406.904C94.163 406.36 94.135 405.932 94.079 405.62C94.023 405.3 93.903 405.072 93.719 404.936C93.543 404.792 93.275 404.72 92.915 404.72C92.611 404.72 92.311 404.768 92.015 404.864C91.719 404.96 91.491 405.056 91.331 405.152V410H90.407ZM102.454 410.12C102.278 410.12 102.066 410.112 101.818 410.096C101.578 410.088 101.334 410.072 101.086 410.048C100.838 410.024 100.618 410.004 100.426 409.988V401.396H101.362V404.288C101.554 404.2 101.814 404.112 102.142 404.024C102.47 403.928 102.786 403.88 103.09 403.88C103.634 403.88 104.066 403.984 104.386 404.192C104.714 404.392 104.946 404.716 105.082 405.164C105.226 405.604 105.298 406.184 105.298 406.904C105.298 407.704 105.21 408.34 105.034 408.812C104.866 409.276 104.574 409.612 104.158 409.82C103.75 410.02 103.182 410.12 102.454 410.12ZM102.442 409.28C102.986 409.28 103.39 409.2 103.654 409.04C103.926 408.872 104.106 408.612 104.194 408.26C104.29 407.908 104.338 407.456 104.338 406.904C104.338 406.392 104.298 405.976 104.218 405.656C104.138 405.336 103.998 405.1 103.798 404.948C103.606 404.796 103.338 404.72 102.994 404.72C102.698 404.72 102.398 404.76 102.094 404.84C101.79 404.912 101.546 404.984 101.362 405.056V409.22C101.53 409.236 101.722 409.252 101.938 409.268C102.162 409.276 102.33 409.28 102.442 409.28ZM108.89 410.12C108.29 410.12 107.814 410.004 107.462 409.772C107.118 409.54 106.87 409.196 106.718 408.74C106.566 408.284 106.49 407.716 106.49 407.036C106.49 406.276 106.594 405.668 106.802 405.212C107.01 404.748 107.302 404.412 107.678 404.204C108.054 403.988 108.498 403.88 109.01 403.88C109.81 403.88 110.414 404.104 110.822 404.552C111.23 404.992 111.434 405.704 111.434 406.688L111.386 407.396H107.438C107.446 408.02 107.562 408.492 107.786 408.812C108.01 409.132 108.414 409.292 108.998 409.292C109.222 409.292 109.466 409.288 109.73 409.28C110.002 409.264 110.27 409.248 110.534 409.232C110.798 409.216 111.022 409.2 111.206 409.184L111.23 409.916C111.038 409.948 110.802 409.98 110.522 410.012C110.25 410.044 109.97 410.068 109.682 410.084C109.394 410.108 109.13 410.12 108.89 410.12ZM107.438 406.64H110.498C110.498 405.904 110.378 405.392 110.138 405.104C109.906 404.808 109.53 404.66 109.01 404.66C108.506 404.66 108.118 404.812 107.846 405.116C107.574 405.42 107.438 405.928 107.438 406.64ZM112.825 410V404H113.749V404.804C113.901 404.7 114.093 404.588 114.325 404.468C114.557 404.34 114.813 404.22 115.093 404.108C115.373 403.996 115.653 403.916 115.933 403.868V404.816C115.661 404.872 115.385 404.948 115.105 405.044C114.825 405.132 114.565 405.228 114.325 405.332C114.093 405.436 113.901 405.528 113.749 405.608V410H112.825ZM119.622 410V404H120.546V404.42C120.738 404.308 120.998 404.192 121.326 404.072C121.654 403.944 121.97 403.88 122.274 403.88C122.674 403.88 122.994 403.928 123.234 404.024C123.482 404.12 123.682 404.276 123.834 404.492C123.994 404.404 124.19 404.312 124.422 404.216C124.654 404.12 124.902 404.04 125.166 403.976C125.438 403.912 125.702 403.88 125.958 403.88C126.502 403.88 126.918 403.976 127.206 404.168C127.502 404.352 127.706 404.66 127.818 405.092C127.93 405.524 127.986 406.1 127.986 406.82V410H127.062V406.856C127.062 406.336 127.03 405.92 126.966 405.608C126.91 405.296 126.794 405.072 126.618 404.936C126.442 404.792 126.174 404.72 125.814 404.72C125.494 404.72 125.178 404.768 124.866 404.864C124.562 404.96 124.326 405.056 124.158 405.152C124.214 405.36 124.25 405.62 124.266 405.932C124.29 406.236 124.302 406.552 124.302 406.88V410H123.378V406.904C123.378 406.36 123.35 405.932 123.294 405.62C123.238 405.3 123.118 405.072 122.934 404.936C122.758 404.792 122.49 404.72 122.13 404.72C121.826 404.72 121.526 404.768 121.23 404.864C120.934 404.96 120.706 405.056 120.546 405.152V410H119.622ZM131.777 410.12C131.177 410.12 130.701 410.004 130.349 409.772C130.005 409.54 129.757 409.196 129.605 408.74C129.453 408.284 129.377 407.716 129.377 407.036C129.377 406.276 129.481 405.668 129.689 405.212C129.897 404.748 130.189 404.412 130.565 404.204C130.941 403.988 131.385 403.88 131.897 403.88C132.697 403.88 133.301 404.104 133.709 404.552C134.117 404.992 134.321 405.704 134.321 406.688L134.273 407.396H130.325C130.333 408.02 130.449 408.492 130.673 408.812C130.897 409.132 131.301 409.292 131.885 409.292C132.109 409.292 132.353 409.288 132.617 409.28C132.889 409.264 133.157 409.248 133.421 409.232C133.685 409.216 133.909 409.2 134.093 409.184L134.117 409.916C133.925 409.948 133.689 409.98 133.409 410.012C133.137 410.044 132.857 410.068 132.569 410.084C132.281 410.108 132.017 410.12 131.777 410.12ZM130.325 406.64H133.385C133.385 405.904 133.265 405.392 133.025 405.104C132.793 404.808 132.417 404.66 131.897 404.66C131.393 404.66 131.005 404.812 130.733 405.116C130.461 405.42 130.325 405.928 130.325 406.64Z" fill="#487790"/>
<g clip-path="url(#clip0_13_123)">
<path d="M53.7037 400.296V411.704H42.2963V400.296H53.7037ZM53.7037 398.667H42.2963C41.4 398.667 40.6667 399.4 40.6667 400.296V411.704C40.6667 412.6 41.4 413.333 42.2963 413.333H53.7037C54.6 413.333 55.3333 412.6 55.3333 411.704V400.296C55.3333 399.4 54.6 398.667 53.7037 398.667Z" fill="#487790"/>
</g>
<path d="M136.806 153L134.582 141.944H135.91L137.766 151.88H138.214L140.454 142.024H141.958L144.198 151.88H144.646L146.502 141.944H147.83L145.59 153H143.286L141.094 143.048H141.318L139.126 153H136.806ZM152.289 153.16C151.489 153.16 150.854 153.005 150.385 152.696C149.926 152.387 149.595 151.928 149.393 151.32C149.19 150.712 149.089 149.955 149.089 149.048C149.089 148.035 149.227 147.224 149.505 146.616C149.782 145.997 150.171 145.549 150.673 145.272C151.174 144.984 151.766 144.84 152.449 144.84C153.515 144.84 154.321 145.139 154.865 145.736C155.409 146.323 155.681 147.272 155.681 148.584L155.617 149.528H150.353C150.363 150.36 150.518 150.989 150.817 151.416C151.115 151.843 151.654 152.056 152.433 152.056C152.731 152.056 153.057 152.051 153.409 152.04C153.771 152.019 154.129 151.997 154.481 151.976C154.833 151.955 155.131 151.933 155.377 151.912L155.409 152.888C155.153 152.931 154.838 152.973 154.465 153.016C154.102 153.059 153.729 153.091 153.345 153.112C152.961 153.144 152.609 153.16 152.289 153.16ZM150.353 148.52H154.433C154.433 147.539 154.273 146.856 153.953 146.472C153.643 146.077 153.142 145.88 152.449 145.88C151.777 145.88 151.259 146.083 150.897 146.488C150.534 146.893 150.353 147.571 150.353 148.52ZM157.631 153V141.528H158.863V153H157.631ZM164.229 153.16C163.387 153.16 162.725 153.021 162.245 152.744C161.765 152.456 161.424 151.997 161.221 151.368C161.029 150.739 160.933 149.907 160.933 148.872C160.933 147.901 161.04 147.123 161.253 146.536C161.477 145.939 161.835 145.507 162.325 145.24C162.816 144.973 163.456 144.84 164.245 144.84C164.427 144.84 164.645 144.856 164.901 144.888C165.168 144.909 165.44 144.941 165.717 144.984C165.995 145.016 166.235 145.048 166.437 145.08L166.389 146.104C166.208 146.083 166 146.061 165.765 146.04C165.531 146.019 165.301 146.003 165.077 145.992C164.853 145.971 164.667 145.96 164.517 145.96C163.909 145.96 163.435 146.056 163.093 146.248C162.763 146.44 162.528 146.749 162.389 147.176C162.261 147.592 162.197 148.157 162.197 148.872C162.197 149.651 162.256 150.275 162.373 150.744C162.491 151.203 162.715 151.533 163.045 151.736C163.376 151.939 163.867 152.04 164.517 152.04C164.667 152.04 164.853 152.035 165.077 152.024C165.312 152.003 165.547 151.981 165.781 151.96C166.027 151.939 166.24 151.923 166.421 151.912L166.453 152.936C166.24 152.968 165.995 153 165.717 153.032C165.44 153.064 165.168 153.091 164.901 153.112C164.635 153.144 164.411 153.16 164.229 153.16ZM171.31 153.16C170.414 153.16 169.715 153.005 169.214 152.696C168.723 152.387 168.377 151.917 168.174 151.288C167.982 150.659 167.886 149.864 167.886 148.904C167.886 147.987 167.993 147.229 168.206 146.632C168.43 146.035 168.793 145.587 169.294 145.288C169.795 144.989 170.467 144.84 171.31 144.84C172.163 144.84 172.841 144.989 173.342 145.288C173.843 145.587 174.201 146.035 174.414 146.632C174.638 147.229 174.75 147.987 174.75 148.904C174.75 149.864 174.649 150.659 174.446 151.288C174.254 151.917 173.907 152.387 173.406 152.696C172.915 153.005 172.217 153.16 171.31 153.16ZM171.31 152.088C171.929 152.088 172.393 151.981 172.702 151.768C173.011 151.544 173.214 151.197 173.31 150.728C173.417 150.259 173.47 149.651 173.47 148.904C173.47 148.168 173.406 147.581 173.278 147.144C173.15 146.707 172.931 146.392 172.622 146.2C172.313 146.008 171.875 145.912 171.31 145.912C170.755 145.912 170.318 146.008 169.998 146.2C169.689 146.392 169.47 146.707 169.342 147.144C169.214 147.581 169.15 148.168 169.15 148.904C169.15 149.651 169.198 150.259 169.294 150.728C169.401 151.197 169.609 151.544 169.918 151.768C170.227 151.981 170.691 152.088 171.31 152.088ZM176.707 153V145H177.939V145.56C178.195 145.411 178.541 145.256 178.979 145.096C179.416 144.925 179.837 144.84 180.243 144.84C180.776 144.84 181.203 144.904 181.523 145.032C181.853 145.16 182.12 145.368 182.323 145.656C182.536 145.539 182.797 145.416 183.107 145.288C183.416 145.16 183.747 145.053 184.099 144.968C184.461 144.883 184.813 144.84 185.155 144.84C185.88 144.84 186.435 144.968 186.819 145.224C187.213 145.469 187.485 145.88 187.635 146.456C187.784 147.032 187.859 147.8 187.859 148.76V153H186.627V148.808C186.627 148.115 186.584 147.56 186.499 147.144C186.424 146.728 186.269 146.429 186.035 146.248C185.8 146.056 185.443 145.96 184.963 145.96C184.536 145.96 184.115 146.024 183.699 146.152C183.293 146.28 182.979 146.408 182.755 146.536C182.829 146.813 182.877 147.16 182.899 147.576C182.931 147.981 182.947 148.403 182.947 148.84V153H181.715V148.872C181.715 148.147 181.677 147.576 181.603 147.16C181.528 146.733 181.368 146.429 181.123 146.248C180.888 146.056 180.531 145.96 180.051 145.96C179.645 145.96 179.245 146.024 178.851 146.152C178.456 146.28 178.152 146.408 177.939 146.536V153H176.707ZM192.914 153.16C192.114 153.16 191.479 153.005 191.01 152.696C190.551 152.387 190.22 151.928 190.018 151.32C189.815 150.712 189.714 149.955 189.714 149.048C189.714 148.035 189.852 147.224 190.13 146.616C190.407 145.997 190.796 145.549 191.298 145.272C191.799 144.984 192.391 144.84 193.074 144.84C194.14 144.84 194.946 145.139 195.49 145.736C196.034 146.323 196.306 147.272 196.306 148.584L196.242 149.528H190.978C190.988 150.36 191.143 150.989 191.442 151.416C191.74 151.843 192.279 152.056 193.058 152.056C193.356 152.056 193.682 152.051 194.034 152.04C194.396 152.019 194.754 151.997 195.106 151.976C195.458 151.955 195.756 151.933 196.002 151.912L196.034 152.888C195.778 152.931 195.463 152.973 195.09 153.016C194.727 153.059 194.354 153.091 193.97 153.112C193.586 153.144 193.234 153.16 192.914 153.16ZM190.978 148.52H195.058C195.058 147.539 194.898 146.856 194.578 146.472C194.268 146.077 193.767 145.88 193.074 145.88C192.402 145.88 191.884 146.083 191.522 146.488C191.159 146.893 190.978 147.571 190.978 148.52ZM204.299 153.176C203.745 153.176 203.302 153.091 202.971 152.92C202.651 152.749 202.422 152.456 202.283 152.04C202.145 151.613 202.075 151.016 202.075 150.248V146.072H200.939V145H202.075V142.552H203.307V145H205.819V146.072H203.307V149.88C203.307 150.445 203.329 150.888 203.371 151.208C203.425 151.517 203.531 151.736 203.691 151.864C203.851 151.992 204.102 152.056 204.443 152.056C204.55 152.056 204.689 152.051 204.859 152.04C205.03 152.029 205.201 152.019 205.371 152.008C205.553 151.987 205.713 151.971 205.851 151.96L205.931 153C205.697 153.032 205.419 153.069 205.099 153.112C204.779 153.155 204.513 153.176 204.299 153.176ZM210.357 153.16C209.461 153.16 208.762 153.005 208.261 152.696C207.77 152.387 207.423 151.917 207.221 151.288C207.029 150.659 206.933 149.864 206.933 148.904C206.933 147.987 207.039 147.229 207.253 146.632C207.477 146.035 207.839 145.587 208.341 145.288C208.842 144.989 209.514 144.84 210.357 144.84C211.21 144.84 211.887 144.989 212.389 145.288C212.89 145.587 213.247 146.035 213.461 146.632C213.685 147.229 213.797 147.987 213.797 148.904C213.797 149.864 213.695 150.659 213.493 151.288C213.301 151.917 212.954 152.387 212.453 152.696C211.962 153.005 211.263 153.16 210.357 153.16ZM210.357 152.088C210.975 152.088 211.439 151.981 211.749 151.768C212.058 151.544 212.261 151.197 212.357 150.728C212.463 150.259 212.517 149.651 212.517 148.904C212.517 148.168 212.453 147.581 212.325 147.144C212.197 146.707 211.978 146.392 211.669 146.2C211.359 146.008 210.922 145.912 210.357 145.912C209.802 145.912 209.365 146.008 209.045 146.2C208.735 146.392 208.517 146.707 208.389 147.144C208.261 147.581 208.197 148.168 208.197 148.904C208.197 149.651 208.245 150.259 208.341 150.728C208.447 151.197 208.655 151.544 208.965 151.768C209.274 151.981 209.738 152.088 210.357 152.088ZM218.997 153V144.968H221.125V153H218.997ZM218.997 143.688V141.864H221.141V143.688H218.997ZM223.031 153V142.072H225.911L229.415 149.752H229.703V142.072H231.911V153H229.063L225.527 145.192H225.239V153H223.031ZM236.354 153.176C235.661 153.176 235.122 153.032 234.738 152.744C234.365 152.445 234.098 151.997 233.938 151.4C233.789 150.803 233.714 150.051 233.714 149.144V144.968H235.842V149.048C235.842 149.613 235.869 150.061 235.922 150.392C235.986 150.723 236.109 150.957 236.29 151.096C236.471 151.235 236.733 151.304 237.074 151.304C237.405 151.304 237.714 151.261 238.002 151.176C238.29 151.091 238.519 151.005 238.69 150.92V144.968H240.818V153H238.706V152.504C238.343 152.707 237.981 152.872 237.618 153C237.266 153.117 236.845 153.176 236.354 153.176ZM242.575 153V144.968H244.703V145.48C244.949 145.331 245.279 145.181 245.695 145.032C246.111 144.872 246.506 144.792 246.879 144.792C247.37 144.792 247.77 144.861 248.079 145C248.389 145.128 248.645 145.32 248.847 145.576C249.039 145.459 249.279 145.341 249.567 145.224C249.855 145.107 250.17 145.005 250.511 144.92C250.853 144.835 251.183 144.792 251.503 144.792C252.293 144.792 252.895 144.931 253.311 145.208C253.727 145.485 254.015 145.923 254.175 146.52C254.335 147.107 254.415 147.875 254.415 148.824V153H252.287V149.016C252.287 148.461 252.255 148.013 252.191 147.672C252.138 147.32 252.021 147.064 251.839 146.904C251.669 146.744 251.407 146.664 251.055 146.664C250.746 146.664 250.442 146.707 250.143 146.792C249.845 146.877 249.61 146.963 249.439 147.048C249.493 147.272 249.53 147.56 249.551 147.912C249.583 148.264 249.599 148.632 249.599 149.016V153H247.471V149.048C247.471 148.483 247.439 148.024 247.375 147.672C247.322 147.32 247.205 147.064 247.023 146.904C246.842 146.744 246.581 146.664 246.239 146.664C245.941 146.664 245.647 146.707 245.359 146.792C245.082 146.877 244.863 146.963 244.703 147.048V153H242.575ZM256.107 153V144.968H258.235V153H256.107ZM256.107 143.688V141.864H258.251V143.688H256.107ZM259.341 153L261.485 149L259.341 144.968H261.645L263.069 147.752L264.509 144.968H266.685L264.589 148.952L266.669 153H264.349L262.925 150.312L261.549 153H259.341Z" fill="black"/>
<path d="M160 69.28C160 57.5274 169.461 48 181.132 48H218.868C230.539 48 240 57.5274 240 69.28V96.64H160V69.28Z" fill="#EA5501"/>
<path d="M173.829 84.48L177.375 70.4648H182.286L185.811 84.48H182.999L182.225 81.6482H177.355L176.621 84.48H173.829ZM177.803 79.3705H181.817L180.248 72.7631H179.392L177.803 79.3705Z" fill="white"/>
<path d="M187.346 84.48V70.4648H191.014L195.476 80.3144H195.843V70.4648H198.655V84.48H195.028L190.525 74.4662H190.158V84.48H187.346Z" fill="white"/>
<path d="M201.216 84.48V70.4648H206.453C207.608 70.4648 208.565 70.629 209.326 70.9573C210.087 71.272 210.657 71.785 211.038 72.4963C211.432 73.2077 211.629 74.1584 211.629 75.3486C211.629 76.5388 211.432 77.51 211.038 78.2624C210.657 79.0012 210.087 79.5484 209.326 79.904C208.565 80.246 207.608 80.417 206.453 80.417H204.028V84.48H201.216ZM204.028 78.0983H206.371C207.227 78.0983 207.839 77.8726 208.205 77.4211C208.572 76.956 208.756 76.272 208.756 75.3691C208.756 74.4389 208.572 73.7754 208.205 73.3787C207.839 72.982 207.227 72.7836 206.371 72.7836H204.028V78.0983Z" fill="white"/>
<path d="M213.434 84.48V70.4648H218.875C219.989 70.4648 220.92 70.6085 221.667 70.8958C222.428 71.183 222.991 71.6618 223.358 72.3322C223.739 73.0025 223.929 73.9122 223.929 75.0613C223.929 76.0736 223.745 76.9286 223.379 77.6263C223.025 78.3103 222.482 78.8165 221.748 79.1448L223.929 84.48H220.974L219.14 79.7809H216.246V84.48H213.434ZM216.246 77.4622H218.936C219.453 77.4622 219.867 77.3664 220.179 77.1749C220.492 76.9697 220.716 76.6892 220.852 76.3336C220.988 75.9642 221.056 75.547 221.056 75.0818C221.056 74.3158 220.879 73.7412 220.526 73.3582C220.173 72.9751 219.622 72.7836 218.875 72.7836H216.246V77.4622Z" fill="white"/>
<path d="M168.522 107.003V117.92H165.902V107.003H168.522ZM168.882 103.822C168.882 104.049 168.836 104.262 168.744 104.46C168.653 104.659 168.529 104.833 168.374 104.982C168.226 105.131 168.05 105.251 167.846 105.344C167.642 105.429 167.423 105.471 167.191 105.471C166.966 105.471 166.751 105.429 166.546 105.344C166.349 105.251 166.177 105.131 166.029 104.982C165.881 104.833 165.761 104.659 165.669 104.46C165.585 104.262 165.543 104.049 165.543 103.822C165.543 103.588 165.585 103.368 165.669 103.162C165.761 102.957 165.881 102.779 166.029 102.63C166.177 102.481 166.349 102.364 166.546 102.279C166.751 102.187 166.966 102.141 167.191 102.141C167.423 102.141 167.642 102.187 167.846 102.279C168.05 102.364 168.226 102.481 168.374 102.63C168.529 102.779 168.653 102.957 168.744 103.162C168.836 103.368 168.882 103.588 168.882 103.822Z" fill="black"/>
<path d="M183.638 102.535V117.92H182.18C181.954 117.92 181.764 117.885 181.609 117.814C181.461 117.736 181.317 117.608 181.176 117.431L173.198 107.174C173.241 107.642 173.262 108.074 173.262 108.472V117.92H170.758V102.535H172.248C172.367 102.535 172.469 102.542 172.554 102.556C172.646 102.563 172.723 102.584 172.786 102.62C172.857 102.648 172.924 102.694 172.987 102.758C173.051 102.815 173.121 102.893 173.198 102.992L181.208 113.292C181.186 113.043 181.169 112.799 181.155 112.557C181.141 112.316 181.134 112.093 181.134 111.887V102.535H183.638Z" fill="#E54A25"/>
<path d="M195.128 107.003V117.92H193.533C193.188 117.92 192.969 117.76 192.878 117.441L192.698 116.569C192.254 117.023 191.765 117.392 191.229 117.675C190.694 117.952 190.063 118.09 189.338 118.09C188.746 118.09 188.221 117.991 187.764 117.792C187.313 117.587 186.932 117.299 186.622 116.93C186.313 116.562 186.077 116.125 185.915 115.622C185.76 115.111 185.682 114.551 185.682 113.941V107.003H188.292V113.941C188.292 114.607 188.443 115.125 188.746 115.494C189.056 115.856 189.518 116.037 190.13 116.037C190.581 116.037 191.004 115.937 191.398 115.739C191.793 115.533 192.166 115.253 192.518 114.898V107.003H195.128Z" fill="#E54A25"/>
<path d="M197.082 117.92V107.003H198.677C199.015 107.003 199.237 107.163 199.343 107.482L199.512 108.291C199.702 108.078 199.899 107.883 200.104 107.706C200.315 107.528 200.537 107.376 200.769 107.248C201.009 107.12 201.262 107.021 201.53 106.95C201.805 106.872 202.104 106.833 202.428 106.833C203.112 106.833 203.672 107.021 204.108 107.397C204.552 107.766 204.883 108.259 205.101 108.876C205.271 108.514 205.482 108.206 205.735 107.95C205.989 107.688 206.267 107.475 206.57 107.312C206.873 107.149 207.194 107.028 207.532 106.95C207.877 106.872 208.222 106.833 208.567 106.833C209.166 106.833 209.698 106.925 210.163 107.11C210.628 107.294 211.018 107.564 211.335 107.918C211.652 108.273 211.892 108.706 212.054 109.216C212.223 109.727 212.308 110.312 212.308 110.972V117.92H209.698V110.972C209.698 110.277 209.546 109.756 209.243 109.408C208.94 109.053 208.497 108.876 207.912 108.876C207.644 108.876 207.394 108.922 207.162 109.014C206.936 109.107 206.736 109.241 206.56 109.419C206.391 109.589 206.257 109.805 206.158 110.068C206.059 110.33 206.01 110.632 206.01 110.972V117.92H203.39V110.972C203.39 110.241 203.242 109.709 202.946 109.376C202.657 109.043 202.231 108.876 201.668 108.876C201.287 108.876 200.931 108.972 200.6 109.163C200.276 109.348 199.973 109.603 199.692 109.929V117.92H197.082Z" fill="#E54A25"/>
<path d="M216.859 107.003V117.92H214.239V107.003H216.859ZM217.218 103.822C217.218 104.049 217.173 104.262 217.081 104.46C216.989 104.659 216.866 104.833 216.711 104.982C216.563 105.131 216.387 105.251 216.183 105.344C215.979 105.429 215.76 105.471 215.528 105.471C215.302 105.471 215.088 105.429 214.883 105.344C214.686 105.251 214.514 105.131 214.366 104.982C214.218 104.833 214.098 104.659 214.006 104.46C213.922 104.262 213.88 104.049 213.88 103.822C213.88 103.588 213.922 103.368 214.006 103.162C214.098 102.957 214.218 102.779 214.366 102.63C214.514 102.481 214.686 102.364 214.883 102.279C215.088 102.187 215.302 102.141 215.528 102.141C215.76 102.141 215.979 102.187 216.183 102.279C216.387 102.364 216.563 102.481 216.711 102.63C216.866 102.779 216.989 102.957 217.081 103.162C217.173 103.368 217.218 103.588 217.218 103.822Z" fill="#E54A25"/>
<path d="M228.564 117.92H226.05C225.859 117.92 225.704 117.87 225.585 117.771C225.472 117.672 225.377 117.558 225.299 117.431L223.007 113.632C222.971 113.753 222.929 113.866 222.88 113.973C222.838 114.079 222.788 114.178 222.732 114.27L220.703 117.431C220.626 117.551 220.531 117.665 220.418 117.771C220.305 117.87 220.164 117.92 219.995 117.92H217.66L221.379 112.291L217.808 107.003H220.323C220.513 107.003 220.654 107.032 220.745 107.088C220.837 107.138 220.918 107.223 220.989 107.344L223.26 110.983C223.338 110.742 223.447 110.504 223.588 110.27L225.416 107.397C225.571 107.135 225.771 107.003 226.018 107.003H228.416L224.856 112.174L228.564 117.92Z" fill="#E54A25"/>
<path d="M232.085 102.967H231.098V105.76H230.489V102.967H229.502V102.463H232.085V102.967Z" fill="black"/>
<path d="M235.928 102.463V105.76H235.391V103.63C235.391 103.545 235.396 103.453 235.405 103.355L234.416 105.226C234.369 105.316 234.297 105.361 234.2 105.361H234.114C234.018 105.361 233.946 105.316 233.899 105.226L232.899 103.348C232.903 103.398 232.907 103.447 232.91 103.496C232.913 103.545 232.914 103.589 232.914 103.63V105.76H232.378V102.463H232.837C232.865 102.463 232.888 102.464 232.908 102.465C232.927 102.467 232.945 102.471 232.96 102.477C232.976 102.483 232.991 102.493 233.003 102.506C233.016 102.52 233.029 102.538 233.041 102.561L234.022 104.392C234.047 104.441 234.071 104.491 234.092 104.542C234.114 104.594 234.136 104.647 234.157 104.702C234.179 104.646 234.2 104.592 234.223 104.54C234.246 104.487 234.27 104.436 234.296 104.387L235.262 102.561C235.274 102.538 235.287 102.52 235.301 102.506C235.314 102.493 235.329 102.483 235.344 102.477C235.36 102.471 235.379 102.467 235.398 102.465C235.418 102.464 235.441 102.463 235.468 102.463H235.928Z" fill="black"/>
<defs>
<clipPath id="clip0_13_123">
<rect width="16" height="16" fill="white" transform="translate(40 398)"/>
</clipPath>
</defs>
</svg>
